<?xml version="1.0" standalone="no"?>
<!DOCTYPE svg PUBLIC "-//W3C//DTD SVG 20010904//EN"
 "http://www.w3.org/TR/2001/REC-SVG-20010904/DTD/svg10.dtd">
<svg version="1.0" xmlns="http://www.w3.org/2000/svg"
 width="512.000000pt" height="512.000000pt" viewBox="0 0 512.000000 512.000000"
 preserveAspectRatio="xMidYMid meet">
<metadata>
Created by potrace 1.11, written by Peter Selinger 2001-2013
</metadata>
<g transform="translate(0.000000,512.000000) scale(0.100000,-0.100000)"
fill="#000000" stroke="none">
<path d="M1699 3196 c-2 -2 -40 -6 -84 -10 -196 -16 -358 -76 -506 -187 -46
-35 -252 -230 -459 -435 -206 -205 -437 -433 -513 -508 l-138 -136 363 0 363
0 145 141 c80 78 217 211 305 297 88 87 182 177 210 200 92 80 198 128 328
147 80 12 198 14 1107 15 l915 1 245 240 245 239 -1261 0 c-694 -1 -1263 -3
-1265 -4z"/>
<path d="M3692 2568 c-348 -348 -635 -636 -639 -640 -3 -5 171 -8 389 -8 l395
0 641 640 642 640 -398 0 -398 0 -632 -632z"/>
<path d="M1867 2644 c-1 -1 -36 -4 -77 -7 -184 -15 -262 -50 -396 -178 -27
-26 -159 -158 -294 -293 l-245 -246 336 0 335 0 113 110 c62 61 131 120 154
131 60 31 128 34 806 34 l614 -1 221 224 c121 123 222 224 223 225 2 3 -1787
3 -1790 1z"/>
</g>
</svg>
