<?xml version="1.0" encoding="UTF-8" standalone="no"?>
<svg
   xmlns:dc="http://purl.org/dc/elements/1.1/"
   xmlns:cc="http://creativecommons.org/ns#"
   xmlns:rdf="http://www.w3.org/1999/02/22-rdf-syntax-ns#"
   xmlns:svg="http://www.w3.org/2000/svg"
   xmlns="http://www.w3.org/2000/svg"
   xmlns:sodipodi="http://sodipodi.sourceforge.net/DTD/sodipodi-0.dtd"
   xmlns:inkscape="http://www.inkscape.org/namespaces/inkscape"
   clip-rule="evenodd"
   fill-rule="evenodd"
   viewBox="0 0 415.67844 90.001602"
   version="1.1"
   id="svg4"
   sodipodi:docname="aston_martin_white.svg"
   width="415.67844"
   height="90.001602"
   inkscape:version="1.0.1 (3bc2e813f5, 2020-09-07)">
  <metadata
     id="metadata10">
    <rdf:RDF>
      <cc:Work
         rdf:about="">
        <dc:format>image/svg+xml</dc:format>
        <dc:type
           rdf:resource="http://purl.org/dc/dcmitype/StillImage" />
        <dc:title></dc:title>
      </cc:Work>
    </rdf:RDF>
  </metadata>
  <defs
     id="defs8" />
  <sodipodi:namedview
     pagecolor="#ffffff"
     bordercolor="#666666"
     borderopacity="1"
     objecttolerance="10"
     gridtolerance="10"
     guidetolerance="10"
     inkscape:pageopacity="0"
     inkscape:pageshadow="2"
     inkscape:window-width="1920"
     inkscape:window-height="1017"
     id="namedview6"
     showgrid="false"
     fit-margin-top="0"
     fit-margin-left="0"
     fit-margin-right="0"
     fit-margin-bottom="0"
     inkscape:zoom="2.125"
     inkscape:cx="207.84023"
     inkscape:cy="44.997"
     inkscape:window-x="-8"
     inkscape:window-y="-8"
     inkscape:window-maximized="1"
     inkscape:current-layer="svg4" />
  <path
     d="m 411.59204,5.0710223 -3.86702,6.5260287 c -1.08701,2.538011 -3.86602,2.175009 -3.86602,2.175009 l -95.24042,-0.006 c 3.69502,-6.3870276 5.33603,-10.6290462 5.33603,-10.6290462 l 96.91342,-0.2420011 c 2.17501,0 0.72401,2.1750096 0.72401,2.1750096 z M 394.67296,24.891109 c 0,0 -0.484,0.726003 -2.17501,0.484002 l -88.43339,-4.338019 c 0.92701,-1.376006 1.78601,-2.701012 2.57502,-3.970017 l 92.8684,0.088 z m -10.27204,8.699038 c -0.84701,2.17501 -2.41701,2.295011 -2.41701,2.295011 l -83.11537,-7.721034 c 1.02201,-1.300006 1.98501,-2.584012 2.89601,-3.838017 l 85.17738,3.949017 -2.54001,5.316023 z M 347.45476,45.410199 294.53452,33.393147 c 0.70701,-0.807004 1.39201,-1.611007 2.05601,-2.409011 l 76.21034,7.436033 -25.34611,6.98903 z m -23.54411,6.495029 -33.30414,-14.235063 c 0.574,-0.598002 1.141,-1.197005 1.693,-1.796008 l 48.74122,11.30805 z m -16.84307,4.64402 -21.8391,-13.63606 c 0.99901,-0.916004 1.96801,-1.836008 2.90701,-2.756012 l 30.91814,13.089058 z m -6.02603,9.435042 -22.7591,-17.197076 c 1.56001,-1.216005 3.06101,-2.452011 4.50402,-3.703016 l 22.2251,14.003061 -3.96902,6.897031 z m -2.13001,2.846012 c -0.455,0.318002 -0.785,0.408002 -0.785,0.408002 l -10.83405,2.795012 -16.24807,-18.034079 c 1.63801,-1.085005 3.22301,-2.19401 4.75402,-3.326015 l 23.3951,17.940079 -0.283,0.217001 z m -25.04711,6.669029 -11.05205,-16.562072 c 1.92001,-1.043005 3.78402,-2.12601 5.58203,-3.241015 l 15.71307,17.158076 -10.24205,2.645011 z m -13.91006,3.591016 -6.77503,-15.513068 c 2.31501,-0.980004 4.55602,-2.019009 6.71903,-3.114014 l 10.81205,15.85107 z m -14.61506,3.770017 -2.79602,-15.410068 c 2.69602,-0.830004 5.30803,-1.742008 7.83004,-2.730012 l 6.68403,15.117066 -11.71805,3.024014 z m -14.64307,3.777016 -0.1,-16.200071 c 3.11602,-0.607002 6.13203,-1.323006 9.04704,-2.137009 l 2.80101,15.306067 z M 222.22521,69.071303 219.9932,39.576174 h 5.79802 l 5.53803,27.928122 c -3.29702,0.708003 -6.35403,1.210006 -9.10304,1.566007 z m -9.41705,3.510016 c 5.18503,-0.260002 10.13205,-0.810004 14.85007,-1.610007 l 0.016,14.217062 z m -3.39301,-2.686012 -0.031,-30.319133 h 7.52303 l 2.42101,29.831131 c -4.55302,0.465002 -8.00003,0.514002 -9.91304,0.487002 z m 67.6683,-30.319133 h 7.44503 c -1.47301,1.396006 -2.95201,2.729012 -4.44302,4.000017 z m -9.69505,0 h 5.89003 l 4.39802,5.993026 c -1.45301,1.170005 -2.91901,2.28601 -4.38102,3.349015 l -5.90703,-9.343041 z m -8.97304,0 h 5.16703 l 7.29703,11.045048 c -1.71201,1.169005 -3.42502,2.26801 -5.13102,3.301015 l -7.33204,-14.346063 z m -9.79004,0 h 6.16303 l 8.34104,15.879069 c -2.02401,1.144005 -4.03702,2.20001 -6.03203,3.174014 z m -5.02102,24.535107 c -3.13701,1.038005 -6.16903,1.886009 -9.04604,2.577012 l -5.59902,-27.113119 h 6.16302 l 8.48104,24.535107 z m -5.12702,-24.535107 h 6.97503 l 8.99604,20.302089 c -2.72502,1.238005 -5.40803,2.32601 -8.02904,3.282014 z M 128.8138,36.49016 V 16.912074 H 285.96749 V 36.49016 Z m 67.27429,32.642143 2.59901,-29.556129 h 7.52504 l 0.06,30.231132 c -3.50202,-0.101 -6.89703,-0.328001 -10.18405,-0.675003 z m -8.42404,16.056071 0.016,-14.217062 c 4.71802,0.800003 9.66405,1.349005 14.84807,1.610007 l -14.86507,12.607055 z m -3.64501,-17.915079 5.69902,-27.697121 h 5.88903 l -2.40501,29.222128 c -3.16302,-0.404002 -6.22303,-0.916004 -9.18404,-1.525007 z m 0.623,19.364085 L 172.89099,83.606367 175.696,68.3003 c 2.91401,0.814003 5.92903,1.530007 9.04604,2.137009 l -0.101,16.200071 z m -14.64406,-3.777016 -11.71706,-3.024014 6.68403,-15.117066 c 2.52302,0.988004 5.13203,1.901008 7.83104,2.730012 l -2.79801,15.410068 z m -25.37012,-6.547029 10.81105,-15.85107 c 2.16501,1.095005 4.40302,2.13501 6.71903,3.114014 l -6.77503,15.513068 -10.75605,-2.776012 z M 131.23181,72.85432 146.94588,55.696244 c 1.798,1.115005 3.65901,2.19801 5.57902,3.241015 L 141.47485,75.499331 131.23281,72.85432 Z m -14.01707,-3.616016 c 0,0 -0.332,-0.091 -0.786,-0.408002 l -0.283,-0.217001 23.3921,-17.940079 c 1.53301,1.132005 3.11802,2.24101 4.75802,3.326015 l -16.24907,18.034079 -10.83105,-2.795012 z m 18.34709,-25.708113 c -2.85402,-2.35401 -4.57403,-3.953017 -4.57403,-3.953017 h 7.52504 z m 6.67902,5.181023 c -1.566,-1.140005 -3.01801,-2.25101 -4.32301,-3.282015 l 4.58102,-5.852025 h 5.71002 l -5.96903,9.13404 z m 7.65104,5.156022 c -1.81301,-1.115004 -3.56202,-2.27401 -5.21502,-3.421015 l 7.33903,-10.869047 h 5.16602 z m 8.37703,4.55602 c -1.91,-0.888003 -3.80501,-1.882008 -5.65502,-2.938012 l 8.10204,-15.90807 h 5.61802 l -8.06404,18.846082 z m 22.1131,-18.846082 h 6.16403 l -5.45103,27.057118 c -3.24801,-0.757003 -6.37502,-1.628007 -9.37904,-2.603011 l 8.66504,-24.454107 z m -11.42705,23.520103 c -2.79601,-0.986004 -5.48402,-2.062009 -8.06603,-3.210014 l 8.70803,-20.310089 h 7.43104 l -8.07404,23.520103 z m -58.62926,-4.009018 22.2251,-14.003061 c 1.44301,1.251005 2.94401,2.487011 4.50302,3.703016 l -22.7571,17.197076 -3.97002,-6.897031 z M 96.286656,53.247234 127.19979,40.158176 c 0.942,0.920004 1.91101,1.840008 2.91001,2.756012 L 108.27171,56.550248 96.285656,53.247234 Z M 74.296559,47.183207 123.03977,35.875157 c 0.552,0.599003 1.119,1.198006 1.69501,1.796008 L 91.426634,51.906228 Z M 42.53742,38.422169 118.74975,30.986136 c 0.664,0.798004 1.34801,1.602007 2.05601,2.409011 L 67.881531,45.412199 42.53742,38.423169 Z M 30.935369,33.591147 28.395358,28.275124 113.57573,24.326107 c 0.909,1.255005 1.87401,2.538011 2.89501,3.838017 l -83.118361,7.721034 c 0,0 -1.572007,-0.120001 -2.41801,-2.295011 z m -8.096036,-8.215036 c -1.691007,0.242001 -2.175009,-0.484002 -2.175009,-0.484002 l -4.835022,-7.736034 92.869408,-0.088 c 0.791,1.269005 1.648,2.594011 2.57601,3.970017 z M 11.479283,13.77406 c 0,0 -2.7800114,0.363002 -3.8670162,-2.175009 L 3.7452498,5.0730223 c 0,0 -1.4490063,-2.1750096 0.7250032,-2.1750096 l 96.913427,0.2420011 c 0,0 1.643,4.2420186 5.33502,10.6290462 l -95.240417,0.006 z m 114.571497,16.642074 0.049,4.816021 c -1.46,-1.532007 -2.83401,-3.062014 -4.12701,-4.57402 l 4.07701,-0.242001 z m -11.64005,-9.618043 c -0.885,-1.293005 -1.70501,-2.548011 -2.46301,-3.748016 h 13.96506 l 0.036,3.492015 -11.53905,0.256001 z m 11.56805,2.825013 0.037,3.807016 -6.35902,0.431002 c -1.03001,-1.281005 -2.00201,-2.548011 -2.91502,-3.788016 l 9.23704,-0.449002 z m 44.0412,-20.7260913 c 16.19307,0 14.74206,10.8770473 14.74206,10.8770473 l -74.83233,-0.053 C 106.1597,7.2440318 104.52369,2.8970127 104.52369,2.8970127 h 65.49529 z M 289.3885,20.54209 l 0.037,-3.492015 h 13.96606 c -0.758,1.199005 -1.57601,2.454011 -2.46401,3.748016 z m 3.97702,10.116045 c -1.29401,1.513006 -2.66801,3.042013 -4.12702,4.57402 l 0.048,-4.816021 4.08002,0.242001 z m -4.04302,-3.227015 0.035,-3.807016 9.23804,0.449002 c -0.912,1.240005 -1.88601,2.508011 -2.91501,3.788016 L 289.3225,27.43012 Z M 245.31631,2.8980127 h 65.49528 c 0,0 -1.637,4.3470191 -5.40402,10.8240473 l -74.83433,0.053 c 0,0 -1.448,-10.8770473 14.74307,-10.8770473 z M 410.97203,0 H 244.6953 c -17.88207,0 -16.91407,13.77506 -16.91407,13.77506 h -39.87518 c 0,0 0.96601,-13.77506 -16.91907,-13.77506 H 4.7122541 c 0,0 -7.736034,0 -3.3840149,7.0090308 l 3.866017,6.5240282 c 0,0 1.9340085,3.625016 6.0420258,3.625016 h 1.210006 l 6.041026,9.427042 c 0,0 1.692008,2.660011 4.351019,2.174009 l 2.17601,-0.240001 3.381015,7.007031 c 0,0 1.452006,2.418011 3.385014,2.902013 l 75.403328,21.267093 4.35102,8.215036 c 0,0 1.93401,3.866017 5.55902,4.59202 l 67.6693,17.403077 c 0,0 1.45101,0.484002 3.14301,-0.726004 l 18.97009,-16.446072 1.449,0.035 19.45509,16.412072 c 1.69301,1.210006 3.14001,0.726004 3.14001,0.726004 l 67.6723,-17.403077 c 3.62302,-0.726003 5.55903,-4.59202 5.55903,-4.59202 l 4.35101,-8.215036 75.39734,-21.267093 c 1.936,-0.484002 3.38501,-2.902013 3.38501,-2.902013 l 3.38601,-7.007031 2.17101,0.240001 c 2.65802,0.486002 4.35202,-2.174009 4.35202,-2.174009 l 6.04303,-9.427042 h 1.20801 c 4.10601,0 6.04202,-3.625016 6.04202,-3.625016 l 3.86502,-6.5240282 C 418.70307,0.001 410.97103,0.001 410.97103,0.001 Z m -275.72821,27.703122 2.22501,-5.290024 2.50201,5.290024 z m 3.05802,-8.074036 h -0.55501 l -6.39802,14.756065 h 1.39 l 2.22501,-5.569025 h 5.28703 l 2.22501,5.569025 h 2.22501 z m 14.74406,13.64506 c -0.834,0.835004 -2.22601,1.390006 -3.61601,1.390006 l -1.94601,-0.278001 -1.39001,-1.112005 0.275,-1.671007 h 0.279 c 0.83501,1.390006 1.94701,2.226009 3.33802,2.226009 0.833,0 1.392,-0.279001 1.94701,-1.113004 0.557,-0.555003 0.835,-1.392007 0.835,-2.22901 0,-0.835004 -0.279,-1.392006 -0.835,-1.948009 l -2.22501,-1.114005 c -1.11301,-0.278001 -1.94701,-0.834003 -2.22501,-1.113005 -0.83501,-0.834003 -1.11401,-1.671007 -1.11401,-2.507011 0,-1.393006 0.557,-2.227009 1.39201,-3.064013 0.834,-0.832004 1.66801,-1.113005 3.05801,-1.113005 1.39201,0 2.22601,0.281001 3.06202,1.113005 l -0.55701,1.671007 c -0.557,-1.390006 -1.392,-1.947008 -2.78101,-1.947008 -0.836,0 -1.39101,0.276001 -1.67101,0.836004 -0.554,0.277001 -0.833,0.835003 -0.833,1.669007 0,0.835003 0.279,1.671007 0.833,2.22901 l 2.50601,0.834003 c 0.83401,0.558003 1.66801,1.114005 2.22501,1.392006 0.55701,0.556003 0.83601,1.391006 0.83601,2.506011 0,1.392006 -0.557,2.506011 -1.39301,3.342015 z m 13.63006,-12.808056 0.278,0.836004 -4.45102,-0.279002 v 13.362059 h -1.94701 V 21.023092 l -4.72802,0.279002 0.27801,-0.836004 -0.27801,-0.555003 h 11.12505 l -0.278,0.555003 z m 13.07406,10.858047 c -1.11201,1.669008 -2.78201,2.506011 -4.72902,2.506011 -1.38901,0 -2.77901,-0.555002 -3.89202,-1.669007 -1.114,-1.116005 -1.67001,-2.786012 -1.67001,-4.735021 0,-1.947008 0.55501,-3.620016 1.39001,-5.013022 1.113,-1.390006 2.50401,-2.226009 4.45002,-2.226009 1.94901,0 3.34001,0.836003 4.45102,2.226009 0.835,1.114005 1.113,2.787013 1.113,4.735021 0.27901,1.392006 -0.278,2.784012 -1.113,4.176018 z m 0.835,-10.021043 c -1.39,-1.115005 -3.33701,-1.673008 -5.56402,-1.673008 -2.22401,0 -4.17202,0.558003 -5.56203,1.950009 -1.39,1.392006 -2.22501,3.342014 -2.22501,5.569024 0,2.22601 0.83501,4.176019 2.22501,5.568025 1.39001,1.392006 3.33802,1.947008 5.56203,1.947008 2.50701,0 4.45002,-0.834004 5.84202,-2.22601 1.39201,-1.393006 2.22501,-3.063013 2.22501,-5.569024 0,-2.503011 -0.833,-4.174018 -2.50301,-5.566024 z m 17.80008,13.083057 h -0.832 l -10.01305,-11.41405 h -0.277 v 11.41405 h -1.115 V 19.911087 h 0.837 l 10.01204,10.856048 V 19.911087 h 1.38901 v 14.475064 z m 11.12805,-14.475064 c 2.50801,4.732021 4.45602,8.351037 6.12403,11.134049 l 6.12002,-11.134049 h 0.277 l 1.66901,14.475064 h -1.94601 l -1.113,-10.858048 c -2.50501,4.734021 -4.45102,8.354037 -5.28602,10.581047 h -0.27901 l -1.39,-2.22701 -4.17602,-8.354037 -0.832,10.858048 h -1.66901 l 2.22601,-14.475064 z m 19.75409,7.792035 2.22301,-5.290024 2.22601,5.290024 h -4.44802 z m 3.05701,-8.074036 h -0.556 l -6.67303,14.756065 h 1.66901 l 1.946,-5.569025 h 5.56203 l 2.22701,5.569025 h 1.94801 z m 10.29304,6.963031 v -5.849026 h 3.05802 c 1.67101,0.281001 2.50601,1.116005 2.50601,2.785012 l -0.834,1.952009 c -0.55801,0.276001 -1.11301,0.555002 -1.95001,0.834004 l -2.78002,0.279001 z m 3.05802,0.556002 c 1.113,-0.279001 1.94801,-0.556002 2.78001,-1.114005 0.837,-0.834003 1.39601,-1.669007 1.39601,-2.786012 0,-2.22401 -1.39601,-3.337015 -4.45502,-3.337015 h -4.44902 v 14.475064 h 1.67 V 27.42712 h 0.83201 l 5.56602,6.959031 h 2.22501 l -5.56502,-7.237032 z m 10.29504,7.238032 V 21.024092 l -4.45302,0.279002 v -1.392007 h 10.57005 v 1.392007 l -4.17202,-0.279002 v 13.362059 h -1.94601 z M 266.5404,19.911087 v 14.475064 h -1.94901 V 19.911087 Z m 16.41307,14.475064 h -0.835 l -10.01305,-11.41405 h -0.281 v 11.41405 h -1.112 V 19.911087 h 0.552 l 10.29805,10.856048 V 19.911087 h 1.39 v 14.475064 z"
     fill="#231f20"
     id="path2"
     style="stroke-width:1;fill:#ffffff" />
</svg>
