<?xml version="1.0" encoding="UTF-8" standalone="no"?>
<svg
   xmlns:dc="http://purl.org/dc/elements/1.1/"
   xmlns:cc="http://creativecommons.org/ns#"
   xmlns:rdf="http://www.w3.org/1999/02/22-rdf-syntax-ns#"
   xmlns:svg="http://www.w3.org/2000/svg"
   xmlns="http://www.w3.org/2000/svg"
   xmlns:sodipodi="http://sodipodi.sourceforge.net/DTD/sodipodi-0.dtd"
   xmlns:inkscape="http://www.inkscape.org/namespaces/inkscape"
   version="1.1"
   id="_x30_"
   x="0px"
   y="0px"
   viewBox="0 0 370.00001 497.99999"
   xml:space="preserve"
   sodipodi:docname="ferrari_white.svg"
   width="370"
   height="498"
   inkscape:version="1.0.1 (3bc2e813f5, 2020-09-07)"><metadata
   id="metadata344"><rdf:RDF><cc:Work
       rdf:about=""><dc:format>image/svg+xml</dc:format><dc:type
         rdf:resource="http://purl.org/dc/dcmitype/StillImage" /><dc:title></dc:title></cc:Work></rdf:RDF></metadata><defs
   id="defs342" /><sodipodi:namedview
   pagecolor="#ffffff"
   bordercolor="#666666"
   borderopacity="1"
   objecttolerance="10"
   gridtolerance="10"
   guidetolerance="10"
   inkscape:pageopacity="0"
   inkscape:pageshadow="2"
   inkscape:window-width="1920"
   inkscape:window-height="1017"
   id="namedview340"
   showgrid="false"
   fit-margin-top="0"
   fit-margin-left="0"
   fit-margin-right="0"
   fit-margin-bottom="0"
   inkscape:zoom="1.2602861"
   inkscape:cx="119.48115"
   inkscape:cy="212.32946"
   inkscape:window-x="-8"
   inkscape:window-y="-8"
   inkscape:window-maximized="1"
   inkscape:current-layer="g303" />
<style
   type="text/css"
   id="style2">
	.st0{fill:#00934D;}
	.st1{fill:#E20A25;}
	.st2{fill:#FFEC00;}
	.st3{fill:#FFFFFF;}
	.st4{font-family:'ArialMT';}
	.st5{font-size:30px;}
</style>




<g
   id="SPLINE_1_"
   transform="translate(-443.4,-821.9)">
	<g
   id="XMLID_6_">
		<g
   id="g303">
			<path
   d="m 698.3,1213.5 c 0.5,-0.5 0.9,-1.2 1.3,-1.5 0.7,-0.6 1.5,-0.3 1.7,0.3 0.3,0.8 -0.8,2.3 -1.6,3.4 -1.1,1.3 -2,2 -3.3,2.4 -1.5,0.5 -3.5,0.7 -5.3,0.8 -0.3,0 -0.5,0.1 -0.5,0.4 -1.6,5.1 -3.8,9.9 -6.2,13.6 -1.7,2.7 -3.5,4.8 -6.5,6.9 -2.7,1.9 -6.3,3.7 -11.1,4 -3,0.2 -6.4,-0.2 -9.4,-1.5 -2.7,-1.2 -5,-3.1 -6.5,-5.3 -0.9,-1.3 -1.6,-2.7 -2.1,-4.3 -0.8,-2.3 -1.1,-5.1 -0.8,-7.7 0.3,-2.5 1.4,-4.8 3,-6.4 1.2,-1.1 2.7,-1.8 4.5,-1.9 2.1,-0.2 4.6,0.5 5.5,2.1 0.6,1.1 0.3,2.8 -0.2,4.1 -0.4,1 -1,1.9 -1.9,2.5 -1,0.7 -2.3,1.1 -3.4,0.4 -0.9,-0.5 -1.6,-1.6 -2.1,-1.6 -0.7,0 -1,2 -0.9,3.7 0.1,3.5 1.5,5.7 3.6,7.4 1.4,1.2 3.2,2.3 5,2.9 3.3,1.1 6.8,0.8 9.7,-0.8 3.2,-1.7 5.7,-4.9 7.7,-8.2 1.7,-2.8 3,-5.6 3.9,-8.7 0.3,-1 0.5,-1.9 0.8,-2.9 0,-0.2 0,-0.3 -0.1,-0.4 -0.1,-0.1 -0.2,-0.2 -0.4,-0.2 -0.3,0 -0.7,0 -1,0.1 -1,0.3 -1.6,1.6 -2.8,2.3 -0.7,0.4 -1.5,0.6 -1.9,0.3 -0.5,-0.4 -0.6,-1.4 -0.4,-2.3 0.2,-1.2 0.9,-2 1.7,-2.6 0.8,-0.6 1.8,-0.9 2.7,-0.9 0.8,-0.1 1.6,0.1 2.4,0.3 0.3,0.1 0.6,-0.1 0.7,-0.4 0.2,-0.7 0.4,-1.4 0.6,-2.1 0.7,-2.2 1.7,-4.2 3.1,-6.2 1,-1.4 2.2,-2.9 4.3,-4.5 0.9,-0.7 1.8,-1.4 2.2,-2 0.4,-0.6 0.2,-1.1 -0.4,-1.3 -0.8,-0.4 -2.2,-0.2 -3.5,-0.3 -2.3,-0.1 -4.3,-0.9 -6.4,-1.4 -2.8,-0.7 -5.5,-1 -8.6,-0.5 -1.8,0.3 -3.8,0.9 -4.9,2.2 -0.7,0.9 -1.1,2.1 -1,3.3 0,1 0.4,2.1 1.1,2.7 1,0.8 2.8,0.8 3.8,0.1 0.7,-0.5 1.1,-1.4 2,-1.7 0.5,-0.2 1.2,-0.3 1.5,0 0.8,0.5 0.3,2 -0.3,3.3 -1.3,2.6 -3.4,3.7 -5.7,4 -2.5,0.3 -5.3,-0.3 -6.8,-2.2 -1.6,-2 -1.8,-5.6 -0.8,-8.2 1.1,-3 3.7,-5 6.4,-6.2 2.5,-1.1 5.1,-1.6 7.8,-1.9 1.9,-0.2 3.9,-0.3 5.6,-0.1 3,0.2 5.8,0.1 8.5,0.6 2.4,0.4 4.8,1.3 7.2,1.8 5.2,1.1 10.5,0.6 15.9,-0.6 2.6,-0.5 5.2,-1.2 7.5,-2.3 1.3,-0.6 2.4,-1.4 4,-1.3 0.7,0 1.4,0.2 1.6,0.6 0.3,0.6 -0.7,1.6 -1.5,2.3 -1.1,1 -2,1.4 -2.9,1.8 -1.4,0.7 -2.7,1.3 -4.1,1.9 -2.1,0.9 -4.4,1.6 -6.5,2.1 -1.4,0.3 -2.7,0.5 -4.3,0.6 -1.9,0.1 -4.2,0.2 -6.3,0 -0.8,0 -1.5,-0.1 -2,0.2 -0.7,0.3 -1.2,1.2 -1.7,2 -1.1,1.8 -2.1,3.2 -3,4.8 -1,1.6 -1.8,3.4 -2.8,5.6 -0.5,1 -0.9,2.1 -1.3,3 -0.1,0.3 -0.2,0.5 -0.3,0.8 -0.1,0.2 0,0.3 0,0.5 0.1,0.2 0.3,0.2 0.4,0.3 0.8,0 1.7,0 2.6,-0.2 1.2,-0.5 2.4,-0.9 3.2,-1.8 z"
   id="path289"
   style="fill:#ffffff" />
			<path
   d="m 624.6,888.8 c 0.1,-0.6 0.3,-1.3 0.2,-1.9 0,-0.1 0.1,-0.3 0.2,-0.3 0.1,-0.1 0.3,0 0.4,0.1 0.1,0.1 0.1,0.2 0.2,0.3 0.3,0.4 0.5,0.9 0.8,1.3 0.3,0.5 0.7,0.9 1.1,1.4 0.6,0.8 1.2,1.6 1.7,2.4 0.6,0.9 1.1,1.7 1.4,2.8 0.2,0.5 0.3,1 0,1.4 -0.1,0.2 -0.3,0.3 -0.5,0.3 -0.6,0.2 -1.2,0 -1.8,-0.2 -0.9,-0.3 -1.6,-0.6 -2.4,-1 -0.4,-0.2 -0.7,-0.4 -1.1,-0.6 -0.7,-0.4 -1.5,-1 -2,-1.8 -0.2,-0.3 -0.4,-0.7 -0.2,-1.1 0.1,-0.3 0.4,-0.5 0.6,-0.7 0.4,-0.3 0.7,-0.6 0.9,-1 0.2,-0.3 0.4,-0.9 0.5,-1.4 z"
   id="path291"
   style="fill:#ffffff" />
			<path
   d="m 596.6,1206.3 c -1.1,-0.3 -1,-1.9 -1.6,-3.1 -0.5,-1.1 -1.4,-1.9 -2.2,-2.7 -1.2,-1.2 -2.1,-2 -3.2,-2.9 -1.6,-1.3 -3.8,-2.5 -6.2,-3.3 -2.5,-0.8 -5.3,-1.2 -7.6,-0.4 -1,0.3 -1.9,0.8 -2.4,1.7 -0.7,1.1 -0.9,2.9 -0.5,4.2 0.8,2.5 3.3,3.8 5.7,5 4,1.9 7.8,3.1 11.6,4.9 2.5,1.2 4.9,2.5 6.9,4.4 1.7,1.5 3,3.4 3.9,5.5 1.4,3.5 1.2,7.7 -0.2,11.4 -0.9,2.6 -2.5,4.9 -4.5,6.8 -1.9,1.9 -4.4,3.3 -7,4.3 -3.8,1.4 -8,1.8 -11.8,1.3 -2.8,-0.4 -5.4,-1.4 -7.8,-2.9 -2.1,-1.3 -4.2,-3 -5.7,-5.1 -1.3,-1.8 -2.1,-4 -2.5,-6.4 -0.3,-2.3 -0.2,-4.9 0.7,-7.2 0.7,-1.8 1.7,-3.3 3.2,-4.2 1.4,-0.9 3.3,-1.2 5,-0.8 1.8,0.4 3.6,1.5 4.2,3.3 0.5,1.3 0.4,3.1 -0.5,4.2 -0.6,0.9 -1.7,1.4 -2.8,1.5 -1.3,0.1 -2.7,-0.5 -3.8,-0.9 -0.6,-0.2 -1.1,-0.3 -1.3,0 -0.1,0.1 -0.1,0.3 -0.1,0.6 0,0.8 0,2 0.2,3 0.5,2.6 1.8,4.3 3.2,5.7 2.4,2.3 4.9,3.5 7.7,4.1 3.2,0.7 6.8,0.5 10,-0.6 2.3,-0.8 4.3,-2 5.7,-3.8 1.2,-1.5 2,-3.5 2.1,-5.5 0.2,-2.1 -0.3,-4.2 -1.5,-5.8 -1.9,-2.6 -5.6,-3.7 -8.9,-5 -2.1,-0.8 -4.1,-1.7 -6,-2.6 -2,-1 -4,-2 -6,-3.1 -2,-1.1 -4.1,-2.4 -5.5,-4.3 -1.4,-1.8 -2.2,-4.2 -2.2,-6.5 0,-2.5 0.8,-5 2.3,-6.8 1.8,-2.4 4.6,-3.7 8,-4.3 3.1,-0.5 6.6,-0.4 9.4,0.7 1.4,0.6 2.6,1.4 3.6,1.9 0.7,0.3 1.3,0.5 2.1,0.5 0.6,0 1.4,-0.2 1.9,-0.6 0.7,-0.5 1,-1.3 1.9,-1.8 0.4,-0.2 1,-0.4 1.4,-0.3 0.8,0.3 0.3,1.8 0,3.1 -0.4,1.9 -0.3,3.3 0.3,4.7 0.4,1 1.1,1.9 1.7,3 0.5,1 0.9,2.2 0.8,3.4 -0.1,0.8 -0.3,1.5 -1,1.8 0,0 -0.4,0 -0.7,-0.1 z"
   id="path293"
   style="fill:#ffffff" />
			<path
   d="m 734.6,885 c -34.3,-8.3 -69.5,-12.5 -104.7,-12.5 -28.8,0 -57.4,2.8 -85.8,7.9 -22.2,4 -44.2,9.5 -64.9,18.2 -9.2,3.9 -18.2,8.4 -27.1,13 0,4.2 0.1,8.3 0.1,12.5 0.2,29.4 0,58.8 1.9,88.1 1.5,22.4 4.1,44.8 8.9,66.8 5.2,23.9 12.8,47.3 22.8,69.6 9.2,20.6 20.4,40.3 33.1,58.9 10.1,14.8 21.2,28.9 33.4,42.1 12.1,13 25.3,25.1 39.5,35.9 11.8,9 24.2,17.2 36.6,25.3 12.4,-8.2 24.8,-16.3 36.6,-25.3 14.1,-10.8 27.3,-22.8 39.5,-35.9 12.2,-13.1 23.3,-27.3 33.4,-42.1 12.7,-18.6 23.9,-38.3 33.1,-58.9 10,-22.3 17.6,-45.7 22.8,-69.6 4.8,-22 7.4,-44.3 8.9,-66.8 1.9,-29.3 1.7,-58.8 1.9,-88.1 0,-4.6 0.1,-9.1 0.1,-13.7 -7.5,-3.7 -15,-7.2 -22.7,-10.4 -15.3,-6.3 -31.2,-11.1 -47.4,-15 z M 554.1,872.4 c 24.6,-4.5 49.4,-7.9 74.2,-8.1 24.6,-0.1 49.2,2.9 73.4,7.6 22.8,4.4 45.3,10.2 67.4,17.3 14.6,4.7 29,9.9 43.4,15.2 -0.1,7.7 -0.2,15.5 -0.2,23.2 -0.2,31.5 0,63 -2.6,94.5 -2.7,33.1 -8.4,66.2 -19,97.6 -7.9,23.3 -18.4,45.6 -30.7,66.9 -11.4,19.8 -24.5,38.7 -39.2,56.1 -13.9,16.4 -29.3,31.6 -46.1,44.9 -14.7,11.7 -30.5,22 -46.3,32.3 -15.8,-10.3 -31.5,-20.6 -46.3,-32.3 -16.8,-13.3 -32.3,-28.5 -46.1,-44.9 -14.8,-17.5 -27.8,-36.3 -39.2,-56.1 -12.3,-21.3 -22.8,-43.6 -30.7,-66.9 -10.6,-31.4 -16.3,-64.5 -19,-97.6 -2.5,-31.5 -2.3,-63 -2.6,-94.5 0,-7.3 -0.1,-14.6 -0.2,-21.9 v 0 c 16.8,-6.9 33.6,-13.7 50.8,-19.2 19.2,-6.1 39,-10.4 59,-14.1 z"
   id="path295"
   style="fill:#ffffff" />
			<path
   d="m 732,1069.1 c -0.1,1.9 -0.5,3.8 -0.9,5.7 -0.5,2.1 -1.1,4.1 -2,5.9 -0.9,1.7 -2.1,3.2 -3.4,4.7 -1,1.1 -2,2.2 -3.1,3.3 -0.6,0.6 -1.3,1.1 -1.8,1.8 -0.4,0.5 -0.7,1 -1,1.6 -0.1,0.3 -0.3,0.7 -0.2,1.1 0,0.2 0.1,0.3 0.3,0.4 0.4,0.4 1.2,-0.1 1.8,-0.4 0.9,-0.5 1.5,-1 2.1,-1.5 1.4,-1.1 2.8,-2.5 4.1,-3.8 1,-1 1.9,-2.1 2.8,-3.2 1,-1.3 1.8,-2.6 2.4,-4.1 0.5,-1.2 0.7,-2.4 1,-3.6 0.6,-3.1 0.8,-6.3 0.6,-9.5 -0.1,-2.1 -0.4,-4.1 -0.8,-6.2 -0.2,-0.9 -0.3,-1.8 -0.5,-2.7 -0.1,-0.4 -0.2,-0.7 -0.4,-1 -0.1,-0.2 -0.3,-0.3 -0.5,-0.3 -0.2,0 -0.4,0.2 -0.5,0.5 -0.1,0.3 -0.1,0.6 0,0.9 0.2,1 0.2,2 0.2,3.1 -0.2,2.3 0,4.8 -0.2,7.3 z M 660.1,918.7 c -0.9,-0.1 -1.7,-0.1 -2.5,-0.1 -0.6,0 -1.3,0 -1.9,-0.1 -0.3,0 -0.6,-0.1 -1,-0.3 -0.3,-0.1 -0.6,-0.2 -0.9,-0.2 -0.3,0 -0.5,0.3 -0.6,0.5 -0.3,0.5 -0.3,1.1 -0.4,1.8 0,0.4 -0.1,0.9 0,1.2 0.1,0.3 0.5,0.5 0.9,0.5 0.5,0 0.9,-0.2 1.3,-0.3 0.3,-0.1 0.7,-0.3 1,-0.5 0.5,-0.3 1,-0.5 1.5,-0.8 0.3,-0.2 0.6,-0.4 0.9,-0.4 0.5,-0.2 1.1,0 1.6,0 0.5,0.1 1,0.1 1.6,0.1 0.2,0 0.4,0 0.5,-0.2 0.1,-0.1 0,-0.4 -0.2,-0.6 -0.4,-0.5 -1.1,-0.5 -1.8,-0.6 z m -5.4,61.2 c 0.3,0.1 0.5,0.2 0.8,0.3 0.4,0.1 0.8,0.2 1.3,0.3 0.2,0 0.4,0 0.5,0 0.3,-0.2 -0.2,-0.7 -0.5,-1.2 -0.3,-0.5 -0.6,-0.9 -0.9,-1 -0.4,-0.2 -0.9,-0.1 -1.4,0 -0.3,0.1 -0.6,0.1 -0.8,0.4 -0.1,0.1 -0.1,0.3 -0.1,0.5 0,0.1 0.1,0.3 0.2,0.4 0.1,0 0.5,0.1 0.9,0.3 z m 35.6,126.2 c 0,0.4 -0.1,0.9 -0.2,1.3 -0.1,0.6 -0.3,1.1 -0.5,1.7 -0.2,0.5 -0.5,1 -0.5,1.6 0,0.3 0.1,0.7 0.3,0.9 0.2,0.2 0.6,0.3 0.8,0.3 0.2,0 0.4,-0.2 0.5,-0.3 0.3,-0.3 0.6,-0.7 0.8,-1.1 0.3,-0.7 0.5,-1.4 0.8,-2.2 0.3,-1.2 0.7,-2.3 0.9,-3.5 0.1,-0.9 0.1,-1.7 0.1,-2.7 0,-0.3 0,-0.6 -0.1,-0.8 -0.1,-0.3 -0.2,-0.5 -0.4,-0.8 -0.3,-0.5 -0.8,-1.1 -1.3,-1.1 -0.2,0 -0.4,0.1 -0.6,0.2 -0.3,0.2 -0.6,0.5 -0.8,0.8 -0.2,0.3 -0.3,0.7 -0.3,1.1 -0.1,0.6 0,1.1 0.1,1.6 0.3,1 0.5,2 0.4,3 z M 651.2,989.2 c 0.2,0 0.3,0.2 0.4,0.3 0.1,0.1 0.2,0.1 0.3,0.2 0.2,0.1 0.4,0.1 0.6,0.2 0.2,0.1 0.5,0.1 0.8,0.2 0.2,0 0.4,0.1 0.5,0 0.1,-0.1 0.1,-0.3 0.1,-0.5 -0.1,-0.5 -0.4,-0.8 -0.7,-1.1 -0.2,-0.2 -0.4,-0.4 -0.7,-0.5 -0.3,-0.1 -0.7,0 -0.9,0.2 -0.1,0.1 -0.2,0.2 -0.3,0.2 -0.1,0 -0.3,0 -0.4,0.1 -0.1,0.1 -0.1,0.3 -0.1,0.5 0,0.1 0.1,0.2 0.1,0.3 0.1,-0.1 0.2,-0.1 0.3,-0.1 z m -3.3,192.3 c -1.2,1.2 -2.4,2.3 -3.6,3.4 -0.8,0.7 -1.5,1.4 -2.1,2.2 -0.4,0.4 -0.7,0.9 -1.1,1.5 -0.2,0.3 -0.4,0.6 -0.3,0.8 0.1,0.1 0.3,0.2 0.4,0.2 0.4,0 0.7,-0.3 1,-0.7 0.7,-0.8 1.5,-1.4 2.3,-2 0.8,-0.7 1.6,-1.3 2.4,-2 1.1,-0.9 2.1,-1.9 3.1,-2.9 0.8,-0.8 1.7,-1.6 2.4,-2.5 0.6,-0.7 1.1,-1.4 1.8,-1.9 0.2,-0.2 0.5,-0.3 0.6,-0.6 0.1,-0.2 0.1,-0.5 0,-0.6 -0.2,-0.4 -1,0 -1.6,0.3 -1,0.6 -1.5,1 -2.1,1.6 -1,0.9 -2.1,2.1 -3.2,3.2 z m 14.4,-240.4 c -0.1,-0.4 -0.4,-0.7 -0.7,-1 -0.2,-0.3 -0.5,-0.6 -0.7,-0.8 -0.2,-0.2 -0.4,-0.5 -0.7,-0.6 -0.2,-0.1 -0.5,-0.2 -0.7,-0.3 -0.5,-0.1 -1,-0.1 -1.4,0 -0.5,0.1 -1,0.3 -1.2,0.8 -0.1,0.2 -0.2,0.5 -0.1,0.7 0.1,0.1 0.2,0.2 0.4,0.3 0.5,0.2 0.9,0.5 1.3,0.7 0.4,0.2 0.9,0.3 1.3,0.4 0.5,0.1 0.9,0.2 1.6,0.4 0.4,0.1 1,0.3 1.1,0.1 -0.1,-0.2 -0.1,-0.5 -0.2,-0.7 z m -10.5,53.8 c 0.2,-0.1 0.1,-0.4 0,-0.7 -0.1,-0.4 -0.4,-0.6 -0.6,-0.8 -0.2,-0.1 -0.4,-0.3 -0.6,-0.4 -0.3,-0.1 -0.6,-0.1 -0.8,0 -0.2,0 -0.3,0.1 -0.5,0.3 -0.1,0.1 -0.2,0.3 -0.2,0.4 0,0.2 0.2,0.3 0.3,0.5 0.2,0.1 0.4,0.2 0.7,0.3 0.3,0.1 0.6,0.1 0.9,0.3 0.2,0.1 0.3,0.2 0.5,0.2 0.1,-0.1 0.3,-0.1 0.3,-0.1 z m 4.3,-40.2 c 0.4,0.4 1,0.7 1.6,0.9 0.7,0.3 1.4,0.5 2.1,0.7 0.5,0.2 1,0.3 1.5,0.4 0.3,0 0.5,0.1 0.8,0 0.2,0 0.3,0 0.4,-0.1 0.3,-0.2 -0.1,-0.8 -0.4,-1.2 -0.3,-0.4 -0.5,-0.7 -0.7,-0.9 -0.3,-0.4 -0.6,-0.9 -1,-1.2 -0.3,-0.2 -0.6,-0.4 -1,-0.5 -0.6,-0.2 -1.3,-0.1 -1.9,0 -0.5,0.1 -0.9,0.3 -1.3,0.8 -0.2,0.2 -0.4,0.5 -0.4,0.8 0.1,0 0.2,0.2 0.3,0.3 z m 0.4,5.4 c -0.3,0.1 -0.5,0.2 -0.8,0.4 -0.2,0.1 -0.3,0.3 -0.3,0.5 -0.1,0.4 0.5,0.7 0.9,0.9 0.6,0.3 1,0.5 1.6,0.7 0.6,0.2 1.3,0.5 2,0.6 0.3,0.1 0.6,0.1 0.9,0.1 0.1,0 0.3,0 0.4,0 0.3,-0.1 0,-0.7 -0.3,-1.1 -0.3,-0.4 -0.5,-0.6 -0.7,-0.9 -0.1,-0.1 -0.2,-0.3 -0.3,-0.4 -0.2,-0.3 -0.4,-0.5 -0.6,-0.7 -0.4,-0.3 -0.9,-0.4 -1.3,-0.3 -0.6,-0.1 -1.1,0 -1.5,0.2 z m -2,22.7 c -0.3,-0.1 -0.8,-0.1 -1.2,-0.1 -0.3,0 -0.6,0.1 -0.8,0.2 -0.1,0.1 -0.3,0.3 -0.3,0.5 0,0.2 0.1,0.4 0.2,0.6 0.3,0.3 0.7,0.5 1.1,0.6 0.3,0.1 0.7,0.2 1,0.3 0.2,0.1 0.4,0.2 0.7,0.2 0.3,0.1 0.7,0.1 0.9,0 0.2,-0.2 -0.2,-0.8 -0.5,-1.3 -0.4,-0.5 -0.7,-0.9 -1.1,-1 z m -15.8,48.5 c 0.7,2.7 1.9,5.3 3.2,7.7 0.7,1.3 1.5,2.5 2.3,3.7 1,1.4 1.9,2.8 3.1,4 1.1,1.2 2.3,2.3 3.5,3.3 0.9,0.8 1.8,1.6 2.8,2.3 0.6,0.5 1.3,0.9 2,1.3 0.4,0.2 0.7,0.4 1.1,0.6 0.3,0.1 0.6,0.3 0.9,0.2 0.1,0 0.3,-0.1 0.3,-0.2 0.1,-0.2 -0.3,-0.5 -0.6,-0.8 -0.6,-0.6 -0.9,-0.9 -1.3,-1.3 -0.9,-0.9 -2.2,-1.8 -3.2,-2.9 -0.2,-0.2 -0.4,-0.5 -0.6,-0.7 -1.2,-1.4 -2.5,-2.8 -3.6,-4.3 -1.6,-2.1 -3.1,-4.3 -4.4,-6.7 -1.1,-2.1 -2.1,-4.2 -2.7,-6.5 -0.3,-1.1 -0.5,-2.2 -0.7,-3.3 -0.1,-0.8 -0.1,-1.5 -0.2,-2.3 -0.1,-0.4 -0.1,-0.9 -0.4,-1.2 -0.2,-0.2 -0.4,-0.4 -0.7,-0.4 -0.2,-0.1 -0.5,0 -0.7,0.1 -0.4,0.2 -0.7,0.6 -0.9,1.1 -0.1,0.3 -0.1,0.7 -0.1,1.1 0.2,1.6 0.4,3.4 0.9,5.2 z m 16.9,-120.8 c -0.2,-0.3 -0.5,-0.6 -0.8,-0.8 -0.2,-0.1 -0.5,-0.2 -0.8,-0.2 -0.3,0 -0.7,0 -1,0.1 -0.4,0.1 -0.8,0.3 -0.9,0.7 0,0.2 0,0.4 0,0.5 0.1,0.2 0.4,0.3 0.7,0.4 0.5,0.2 0.9,0.4 1.3,0.6 0.5,0.2 1,0.3 1.7,0.4 0.4,0.1 0.9,0.1 1,0 0.1,-0.2 -0.2,-0.5 -0.4,-0.9 -0.4,-0.2 -0.6,-0.5 -0.8,-0.8 z m -15.3,25.3 c -2.8,1.6 -5.8,2.7 -9,3.2 -0.2,0 -0.3,0.2 -0.3,0.3 0,0.2 0.1,0.3 0.3,0.3 0.1,0 0.1,0 0.2,0 1.2,0.2 2.3,0.2 3.5,0.2 1,0 2,-0.1 2.9,-0.3 0.6,-0.1 1.1,-0.4 1.5,-0.8 0.4,-0.4 0.7,-0.9 0.9,-1.5 0.2,-0.4 0.3,-0.7 0.4,-1.1 0,-0.1 0,-0.3 -0.1,-0.4 0,0 -0.2,0 -0.3,0.1 z m -8,258.1 c -0.3,0.2 -0.5,0.4 -0.8,0.7 -0.2,0.2 -0.3,0.3 -0.5,0.5 -0.2,0.3 -0.3,0.6 -0.3,1 0,0.2 0.1,0.5 0.3,0.6 0.2,0.1 0.4,0 0.6,-0.1 0.4,-0.2 0.8,-0.4 1.1,-0.6 0.3,-0.2 0.7,-0.4 1,-0.8 0.3,-0.4 0.5,-0.8 0.3,-1.2 -0.1,-0.2 -0.4,-0.3 -0.6,-0.4 -0.5,0 -0.8,0.1 -1.1,0.3 z m -0.3,-257 c 0,0.2 0.1,0.3 0.3,0.3 0.1,0 0.1,0 0.2,0 1.1,0 2.1,-0.4 3.2,-0.8 0.6,-0.2 1.2,-0.4 1.7,-0.8 0.4,-0.4 0.6,-0.9 0.8,-1.4 0.2,-0.6 0.3,-1.3 0.4,-1.9 0,-0.1 -0.1,-0.3 -0.2,-0.3 -0.1,-0.1 -0.3,0 -0.4,0.1 -1.4,2.1 -3.4,3.6 -5.8,4.5 -0.1,0 -0.2,0.2 -0.2,0.3 z m 3.1,19.2 c -0.5,1.6 -1,3.2 -1.6,4.8 -0.8,1.9 -1.6,3.7 -2.6,5.4 -1.1,2 -2.3,3.9 -3.5,5.8 -0.2,0.3 -0.4,0.6 -0.6,0.9 -0.8,1.2 -1.6,2.3 -2.4,3.4 -0.4,0.5 -0.7,1 -0.7,1.7 0,0.3 0.1,0.6 0.2,0.7 0.2,0.1 0.6,-0.2 0.9,-0.5 0.4,-0.4 0.6,-0.7 0.9,-1 0.7,-0.8 1.7,-1.7 2.5,-2.6 1.8,-1.8 3.2,-3.8 4.6,-5.8 1.3,-1.8 2.5,-3.7 3.3,-5.8 0.7,-1.9 1,-4 1.4,-5.8 0.2,-1 0.4,-1.9 0.3,-3.1 -0.1,-0.6 -0.2,-1.4 -0.7,-1.4 -0.2,0 -0.4,0.1 -0.6,0.2 -0.4,0.3 -0.6,0.7 -0.8,1.2 -0.2,0.5 -0.4,1.2 -0.6,1.9 z m -6,-42.7 c -0.7,-0.6 -1.5,-1 -2.3,-1.1 -0.9,-0.1 -1.8,0.1 -2.6,0.5 -0.5,0.3 -1.1,0.6 -1.5,1.1 -0.3,0.3 -0.5,0.6 -0.6,1 -0.1,0.4 -0.1,0.8 0.1,1 0.2,0.2 0.7,0.2 1.1,0.1 0.4,-0.1 0.7,-0.2 1.1,-0.3 0.4,-0.1 0.9,-0.1 1.3,0.1 0.7,0.2 1.2,0.7 1.6,1.3 0.3,0.3 0.6,0.7 1,1 0.3,0.3 0.7,0.6 1.1,0.6 0.3,0 0.6,-0.1 0.8,-0.3 0.3,-0.3 0.4,-0.7 0.4,-1.1 0,-0.6 0,-1.1 -0.2,-1.6 -0.1,-0.8 -0.6,-1.6 -1.3,-2.3 z m -1.8,-2.4 c 0.4,0.1 0.8,0 1.1,0 0.3,0 0.7,0.2 1,0.4 0.4,0.2 0.7,0.4 1,0.6 0.2,0.2 0.4,0.4 0.4,0.7 0,0.1 0.1,0.3 0.1,0.3 0.1,0.1 0.4,0.1 0.6,0.2 0.2,0 0.4,0 0.5,-0.1 0,-0.1 0,-0.2 0,-0.3 0,-0.3 -0.1,-0.5 -0.2,-0.7 -0.2,-0.5 -0.4,-1 -0.8,-1.4 -0.3,-0.4 -0.7,-0.7 -1.2,-0.8 -0.4,-0.2 -0.8,-0.2 -1.2,-0.2 -0.3,0 -0.6,-0.1 -1,0 -0.4,0 -0.8,0.1 -1,0.5 -0.1,0.2 -0.2,0.5 -0.1,0.7 0.3,0 0.6,0.1 0.8,0.1 z m -12.2,299.5 c -0.2,0.4 -0.4,0.8 -0.3,1.1 0.1,0.2 0.3,0.4 0.5,0.5 0.3,0.2 0.6,0.2 1,0.2 0.4,0 0.9,-0.1 1.1,-0.4 0.1,-0.2 0.1,-0.5 0,-0.9 0,-0.3 -0.1,-0.5 0,-0.8 0.1,-0.2 0.3,-0.3 0.4,-0.4 0.4,-0.2 0.8,-0.2 1.2,-0.2 0.4,0 0.9,-0.2 1,-0.5 0,-0.2 0,-0.3 0,-0.5 -0.1,-0.5 -0.4,-1 -0.8,-1.3 -0.2,-0.1 -0.5,-0.2 -0.8,-0.2 -0.2,0 -0.4,0.1 -0.6,0.3 -0.5,0.3 -0.9,0.6 -1.2,1 -0.4,0.4 -0.7,0.9 -1,1.4 -0.2,0.2 -0.3,0.4 -0.5,0.7 z m -4.9,-59.9 c -1,-0.1 -2,-0.3 -2.9,-0.3 -0.5,0 -0.9,0 -1.4,-0.1 -0.3,0 -0.6,-0.1 -0.7,0 -0.2,0.2 0,0.8 0.3,1.1 0.2,0.3 0.4,0.4 0.7,0.5 0.5,0.3 1.1,0.5 1.7,0.6 1.1,0.3 2.3,0.5 3.5,0.6 0.7,0 1.4,0 2.1,0 1.3,-0.1 2.5,-0.2 3.8,-0.2 1.2,0 2.4,0 3.6,-0.1 0.2,0 0.5,0 0.7,0 0.3,0 0.6,-0.1 0.9,-0.2 0.3,-0.1 0.6,-0.2 0.8,-0.4 0.2,-0.2 0.3,-0.6 0.2,-0.8 -0.1,-0.4 -0.8,-0.3 -1.5,-0.2 -1.4,0.1 -2.3,0.1 -3.4,0.1 -1.3,0 -2.7,0 -4.1,-0.1 -1.4,-0.1 -2.8,-0.3 -4.3,-0.5 z m -1.9,-158.1 c 1.7,0 3.3,0.1 5,0.4 1.4,0.2 2.8,0.6 4.1,1.2 0.6,0.3 1.1,0.6 1.7,0.8 0.3,0.1 0.7,0.2 1,0 0.2,-0.1 0.3,-0.2 0.4,-0.3 0.1,-0.2 -0.1,-0.4 -0.3,-0.6 -0.3,-0.4 -0.6,-0.6 -0.9,-0.9 -0.5,-0.5 -1.1,-0.9 -1.7,-1.3 -1.1,-0.7 -2.2,-1.2 -3.4,-1.6 -1.2,-0.3 -2.4,-0.5 -3.7,-0.5 -1.3,0 -2.7,0.1 -4,0.4 -1.2,0.3 -2.4,0.7 -3.6,1.1 -0.4,0.2 -0.7,0.3 -1.1,0.5 -0.4,0.2 -0.9,0.4 -1.1,0.8 -0.2,0.3 -0.2,0.6 -0.1,0.9 0.1,0.3 0.3,0.5 0.5,0.6 0.2,0.1 0.5,0 0.7,0 0.2,-0.1 0.4,-0.2 0.6,-0.2 0.8,-0.3 1.6,-0.6 2.4,-0.8 1.1,-0.4 2.3,-0.5 3.5,-0.5 z m -56.4,33.9 c -0.2,0.2 -0.4,0.4 -0.3,0.6 0,0.2 0.2,0.4 0.4,0.5 0.3,0.2 0.5,0.2 0.8,0.3 0.4,0.1 0.9,0.4 1.3,0.6 0.5,0.2 1,0.4 1.5,0.6 0.5,0.3 0.9,0.6 1.4,0.9 0.8,0.6 1.6,1.1 2.5,1.7 1,0.6 2,1.2 2.9,1.7 0.5,0.2 0.9,0.4 1.5,0.5 0.4,0.1 0.8,0.1 1,-0.1 0.1,-0.2 0.1,-0.5 0,-0.8 -0.1,-0.3 -0.3,-0.5 -0.4,-0.7 -0.4,-0.4 -0.8,-0.8 -1.2,-1.1 -0.8,-0.7 -1.8,-1.2 -2.7,-1.7 -0.8,-0.4 -1.5,-0.8 -2.3,-1.1 -0.4,-0.2 -0.8,-0.4 -1.3,-0.6 -0.9,-0.4 -1.9,-0.6 -2.8,-1.1 -0.5,-0.2 -1,-0.5 -1.5,-0.5 -0.3,0 -0.5,0.1 -0.8,0.3 z m -2.4,-43 c 0.3,-0.1 0.6,-0.2 0.9,-0.3 0.2,0 0.4,0 0.6,0.1 0.1,0 0.2,0 0.3,0 0.3,0 0.6,0 0.9,-0.2 0.2,-0.1 0.3,-0.2 0.4,-0.4 0.1,-0.2 0,-0.5 -0.1,-0.7 -0.2,-0.4 -0.7,-0.5 -1.1,-0.6 -0.5,-0.1 -0.9,-0.1 -1.4,0 -0.5,0.1 -1,0.4 -1.4,0.6 -0.3,0.2 -0.5,0.4 -0.7,0.7 -0.1,0.1 -0.1,0.3 -0.1,0.4 0.1,0.2 0.4,0.3 0.6,0.3 0.5,0.2 0.8,0.2 1.1,0.1 z m 0.3,95.9 c 0.1,0.2 0.2,0.4 0.3,0.6 0.2,0.4 0.4,0.7 0.7,1.1 0.2,0.4 0.4,0.9 0.8,1.2 0.2,0.2 0.5,0.4 0.8,0.4 0.3,0 0.6,-0.1 0.8,-0.3 0.3,-0.3 0.4,-0.7 0.4,-1.1 0,-0.5 -0.4,-1 -0.8,-1.3 -0.4,-0.4 -0.9,-0.7 -1.5,-1 -0.5,-0.3 -1.2,-0.7 -1.4,-0.4 -0.2,0.2 -0.2,0.5 -0.1,0.8 z M 536.2,1038 c 0,1.2 0.2,2.3 0.4,3.5 0.2,1 0.3,1.9 0.7,2.8 0.3,0.8 0.7,1.5 1.1,2.3 0.2,0.4 0.4,0.8 0.7,1.1 0.2,0.2 0.4,0.3 0.6,0.3 0.1,0 0.3,-0.1 0.4,-0.1 0.4,-0.3 0.1,-0.9 -0.1,-1.5 -0.2,-0.6 -0.4,-1.1 -0.5,-1.6 -0.1,-0.2 -0.1,-0.3 -0.2,-0.6 -0.2,-1 -0.4,-1.9 -0.6,-2.9 -0.1,-0.7 -0.3,-1.3 -0.3,-2 -0.1,-1.1 0,-2.2 0,-3.3 0,-0.5 0.1,-0.9 -0.1,-1.4 -0.1,-0.3 -0.3,-0.5 -0.6,-0.6 -0.3,-0.1 -0.5,0 -0.8,0.2 -0.4,0.3 -0.4,0.9 -0.5,1.4 -0.1,0.9 -0.2,1.6 -0.2,2.4 z m -3.1,-36.8 c -0.2,0.4 -0.4,0.9 -0.3,1.3 0.1,0.2 0.2,0.4 0.4,0.5 0.3,0.1 0.7,-0.3 1.1,-0.7 0.5,-0.5 0.8,-1 1.2,-1.5 0.2,-0.3 0.4,-0.6 0.7,-0.9 0.4,-0.6 0.8,-1.2 1.1,-1.8 0.4,-0.8 0.8,-1.5 1.3,-2.3 0.4,-0.6 0.9,-1.2 1.3,-1.8 0.3,-0.4 0.4,-0.9 0.5,-1.4 0,-0.5 0,-1.1 -0.3,-1.2 -0.3,-0.2 -0.8,0.1 -1.2,0.4 -0.7,0.5 -1,1.2 -1.4,1.8 -0.6,1 -1.4,2.1 -2,3.1 -0.5,0.8 -1,1.7 -1.4,2.5 -0.4,0.7 -0.7,1.3 -1,2 z m -13.8,22.3 c -0.1,0.3 -0.3,0.6 -0.3,1 0,0.3 0.1,0.6 0.2,0.8 0.1,0.1 0.2,0.2 0.3,0.3 0.3,0.1 0.7,-0.4 0.9,-0.8 0.2,-0.4 0.4,-0.6 0.6,-1 0.1,-0.1 0.1,-0.3 0.2,-0.4 0.2,-0.4 0.3,-0.8 0.5,-1.2 0.1,-0.3 0.3,-0.6 0.3,-0.9 0.1,-0.3 0,-0.6 -0.1,-0.9 0,-0.1 -0.1,-0.1 -0.2,-0.2 -0.3,-0.1 -0.5,0.3 -0.7,0.7 -0.3,0.4 -0.5,0.7 -0.8,1 -0.2,0.2 -0.4,0.3 -0.5,0.5 -0.2,0.2 -0.3,0.7 -0.4,1.1 z m -3.9,17.6 c 0.1,0.3 0.2,0.5 0.4,0.8 0.1,0.2 0.2,0.4 0.3,0.4 0.2,0.1 0.5,-0.5 0.8,-0.9 0.2,-0.4 0.4,-0.7 0.5,-1 0.1,-0.2 0.1,-0.5 0.1,-0.8 0,-0.3 0.1,-0.7 0,-1 0,-0.3 -0.1,-0.6 -0.3,-0.8 -0.1,-0.2 -0.3,-0.4 -0.5,-0.4 -0.3,0 -0.6,0.3 -0.8,0.6 -0.4,0.6 -0.5,1.2 -0.6,1.9 -0.1,0.5 0,0.9 0.1,1.2 z m 82.1,108.7 c -0.3,0 -0.5,0 -0.8,0 -0.2,0 -0.4,0 -0.7,0 -0.2,0.1 -0.5,0.1 -0.5,0.3 0,0.1 0,0.3 0,0.4 0,0.2 0.1,0.3 0.3,0.4 0.1,0.1 0.3,0.1 0.5,0.1 0.4,0 0.8,0 1.2,0 0.2,0 0.4,-0.1 0.6,-0.2 0.2,-0.2 0.2,-0.6 0.1,-0.8 -0.3,-0.1 -0.5,-0.2 -0.7,-0.2 z m -6.8,-99.1 c 0,0.3 0.2,0.6 0.3,0.9 0.2,0.5 0.5,1 0.8,1.4 0.8,1.3 1.7,2.5 2.6,3.8 1,1.4 2.1,2.8 3.2,4.2 0.4,0.5 0.8,1 1.2,1.5 1.4,1.7 3,3.4 4.6,5 3,3 6.2,5.9 9.5,8.5 1.6,1.3 3.3,2.6 5,3.8 0.9,0.6 1.7,1.2 2.5,1.8 0.4,0.3 0.8,0.7 1.5,0.8 0.2,0 0.5,0 0.6,-0.1 0.1,-0.1 -0.1,-0.4 -0.3,-0.6 -0.3,-0.4 -0.5,-0.6 -0.7,-0.8 -0.4,-0.4 -0.8,-0.8 -1.3,-1.2 -0.9,-0.9 -1.8,-1.8 -2.7,-2.7 -2.6,-2.7 -5.4,-5.2 -8.1,-7.7 -2.5,-2.5 -4.9,-5 -7.3,-7.7 -2.3,-2.6 -4.7,-5.5 -6.6,-7.8 -0.8,-0.9 -1.5,-1.7 -2.8,-2.9 -0.7,-0.7 -1.6,-1.5 -2,-1.1 0,0.2 0,0.6 0,0.9 z m -4.2,-125.5 c -0.5,0.5 -0.8,1.1 -1,1.8 -0.2,0.5 -0.4,1.1 -0.5,1.7 -0.1,0.4 -0.2,0.9 0,1.3 0.1,0.3 0.3,0.6 0.6,0.6 0.3,0 0.5,-0.4 0.8,-0.7 0.2,-0.2 0.3,-0.3 0.5,-0.5 0.3,-0.3 0.5,-0.5 0.8,-0.8 0.3,-0.3 0.7,-0.6 1.1,-0.7 0.3,0 0.6,0.1 0.9,0 0.3,0 0.5,-0.2 0.6,-0.5 0.3,-0.4 0.2,-1 -0.1,-1.5 -0.3,-0.5 -0.6,-0.9 -1.1,-1.1 -0.4,-0.2 -0.8,-0.3 -1.3,-0.2 -0.5,0.1 -1,0.3 -1.3,0.6 z M 573,1151.1 c -0.4,0 -0.7,0 -1,0 -0.2,0 -0.4,0 -0.6,0.1 -0.3,0.1 -0.6,0.1 -0.9,0.3 -0.3,0.1 -0.7,0.3 -0.8,0.6 0,0.2 0.1,0.5 0.2,0.7 0.2,0.2 0.4,0.4 0.7,0.5 0.3,0.2 0.7,0.4 1.1,0.3 0.3,0 0.5,-0.2 0.7,-0.3 0.3,-0.2 0.7,-0.4 0.9,-0.8 0.3,-0.4 0.6,-1.1 0.3,-1.3 0,-0.1 -0.3,-0.1 -0.6,-0.1 z m 97.6,-128.2 c -1.1,-0.1 -1.9,-0.7 -2.7,-1.3 -1,-0.8 -2,-1.5 -3,-2.3 -1.1,-0.9 -2.2,-1.8 -3.4,-2.5 -0.9,-0.6 -1.9,-1.1 -3,-1.5 -0.7,-0.3 -1.4,-0.5 -2.1,-0.7 -0.9,-0.2 -1.9,-0.2 -2.8,-0.4 -1.4,-0.3 -2.7,-1 -3.8,-2 -0.4,-0.3 -0.7,-0.7 -1.1,-0.9 -0.4,-0.2 -0.8,-0.3 -1.2,-0.4 -0.3,0 -0.5,0.1 -0.6,0.4 -0.2,0.7 -0.5,1.4 -0.7,2.2 -0.4,1.8 -0.6,3.8 -0.4,5.7 0.3,3.5 1.3,6.8 2.7,10.1 1.6,3.7 3.6,7.2 6,10.5 1.6,2.2 3.4,4.4 5.2,6.5 0.3,0.4 0.7,0.8 1,1.2 1.8,2 3.8,3.8 6.1,5.3 0.1,0.1 0.2,0.2 0.4,0.2 2.7,1.8 5.2,3.7 7.6,5.7 2.7,2.2 5.4,4.5 7.9,7.1 3.8,3.9 7.2,8.5 10.1,13.1 1.8,2.9 3.5,5.8 4.6,8.9 0.7,2 1.2,4.1 1.6,6.2 0,0.2 0.2,0.3 0.3,0.3 0.8,0.1 1.7,0.1 2.5,0.1 1.7,-0.1 3.4,-0.5 5,-1.1 3,-1 5.8,-2.6 8.3,-4.5 1.6,-1.2 3,-2.7 4.3,-4.2 2.6,-3.2 4.6,-6.9 5.6,-10.8 1,-3.5 1.2,-7.1 1.2,-10.8 0,-6.2 -0.6,-12.6 -2,-18.5 -0.7,-2.7 -1.5,-5.4 -2.1,-8.1 -0.9,-3.8 -1.5,-7.9 -1.5,-11.9 0,-3.2 0.4,-6.5 1.3,-9.4 0.9,-2.9 2.3,-5.7 4.1,-8.3 1.8,-2.6 3.9,-5.1 6.3,-7.1 1.1,-0.9 2.2,-1.7 3.3,-2.5 1.2,-0.8 2.4,-1.7 3.6,-2.6 0.6,-0.4 1.2,-0.9 1.9,-1.2 0.3,-0.1 0.5,-0.2 0.8,-0.2 0.2,0 0.5,0.1 0.6,0.3 0.2,0.3 0.1,0.6 -0.1,1 -0.2,0.4 -0.5,0.7 -0.9,1 -0.9,0.7 -1.7,1.5 -2.5,2.3 -1.1,1.1 -2.1,2.1 -3.1,3.3 -1.4,1.7 -2.6,3.6 -3.7,5.5 -1.3,2.3 -2.5,4.7 -3.2,7.3 -0.6,1.9 -0.9,3.8 -1,5.8 -0.1,1.3 0,2.6 0,3.8 0,0.2 0.1,0.3 0.3,0.4 0.1,0.1 0.3,0 0.4,-0.1 1.5,-1.4 3.1,-2.8 4.6,-4.2 1.3,-1.2 2.6,-2.3 3.8,-3.6 1.3,-1.4 2.5,-2.9 3.5,-4.5 0.9,-1.3 1.6,-2.7 2.5,-4 0.4,-0.6 0.9,-1.3 1.3,-2 0.3,-0.6 0.7,-1.3 1.2,-1.5 0.2,-0.1 0.4,-0.1 0.6,0 0.6,0.3 0.6,1.3 0.6,2.2 0,2.2 -0.5,3.7 -1.2,5.3 -0.6,1.4 -1.5,3 -2.4,4.3 -1.1,1.7 -2.4,3.2 -3.6,4.7 -1.7,2.1 -3.3,4.3 -4.2,6.9 -0.6,1.6 -1,3.4 -1,5.2 0,1.1 0,2.1 0.2,3.2 0.1,0.6 0.2,1.2 0.5,1.8 0.2,0.3 0.4,0.6 0.6,0.7 0.5,0.3 1.2,-0.1 1.7,-0.5 1,-0.7 1.7,-1.5 2.3,-2.3 1,-1.3 2.1,-2.7 3.1,-4.1 0.8,-1.1 1.5,-2.1 2.1,-3.3 0.7,-1.3 1.3,-2.8 1.7,-4.2 0.3,-0.9 0.6,-1.8 1.2,-2.7 0.2,-0.3 0.4,-0.6 0.7,-0.7 0.5,-0.2 0.9,0.9 1.1,1.8 0.5,2 0.4,3.3 0,4.7 -0.4,1.6 -1.1,3.3 -2.1,4.9 -1,1.6 -2.2,2.9 -3.2,4.4 -0.9,1.3 -1.6,2.7 -2.2,4.3 -0.9,2.7 -1.2,6 -1.3,8.7 -0.1,3.6 0.2,6 0.6,8.7 0.4,2.5 1,5.3 1.3,8.3 0.5,5.2 0.1,11.1 -1.8,16.5 -1.4,4 -3.5,7.7 -6.3,10.7 -1.6,1.7 -3.4,3.2 -5.3,4.4 -1.4,0.9 -2.9,1.7 -4.4,2.3 -1.5,0.6 -3.1,1 -4.6,1.4 -0.1,0 -0.2,0.1 -0.3,0.2 0,0.1 0,0.2 0,0.3 0.3,0.5 0.6,1.1 0.9,1.6 0.9,1.9 1.5,3.9 1.8,6 0.2,1.4 0.3,2.8 0.1,4.1 -0.1,0.9 -0.3,1.8 -0.7,2.6 -0.2,0.5 -0.5,0.9 -0.7,1.4 -0.6,1.5 -0.5,3.4 0,5 0.2,0.7 0.5,1.4 0.6,2.1 0.2,0.8 0.2,1.7 0.1,2.5 0,0.2 0,0.3 0,0.5 0,0.2 -0.1,0.3 -0.3,0.4 -0.2,0 -0.3,0 -0.4,-0.2 -0.7,-1 -1.4,-2.1 -2,-3.2 -0.6,-1.3 -1.1,-2.6 -1.4,-4 -0.2,-1.2 -0.2,-2.5 -0.1,-3.8 0,-0.9 0,-1.7 0,-2.6 -0.1,-1.2 -0.2,-2.4 -0.6,-3.6 -0.4,-1.3 -1.1,-2.5 -1.7,-3.6 -0.5,-0.8 -0.9,-1.6 -2,-2.2 -0.3,-0.2 -0.6,-0.3 -0.8,-0.2 -0.2,0.1 -0.2,0.4 -0.2,0.7 0,0.4 0.1,0.8 0.3,1.1 0.3,0.7 0.9,1.4 1.4,2.1 0.5,0.9 0.8,1.9 1,2.9 0.4,2.3 0.4,4.8 0.1,7.1 -0.4,2.4 -1.1,4.8 -2,7.1 -0.9,2.2 -2,4.4 -3.4,6.3 -1.2,1.7 -2.7,3.2 -4.1,4.9 -1.5,1.8 -3,3.8 -3.4,6 -0.2,1 -0.2,2 -0.1,2.9 0,0.2 0,0.3 0,0.5 0,0.1 0,0.2 -0.1,0.3 0,0.1 -0.1,0.1 -0.2,0.1 -0.2,0.1 -0.3,0 -0.5,-0.1 -0.1,-0.2 -0.3,-0.3 -0.4,-0.5 -0.4,-0.5 -0.7,-1.1 -1,-1.6 -0.5,-1.1 -0.9,-2.4 -0.8,-3.6 0.1,-0.9 0.4,-1.8 0.8,-2.7 0.5,-1.2 1.2,-2.4 1.9,-3.5 0.9,-1.5 1.8,-2.9 2.6,-4.5 0.9,-1.7 1.7,-3.4 2.3,-5.3 0.6,-1.8 1,-3.6 1,-5.4 0,-1.3 -0.2,-2.5 -0.4,-4.1 -0.1,-0.6 -0.1,-1.3 -0.6,-1.5 -0.2,-0.1 -0.6,-0.1 -0.8,0 -0.3,0.1 -0.6,0.4 -0.8,0.7 -0.4,0.5 -0.8,1.2 -0.8,1.8 0,0.4 0.1,0.8 0.1,1.2 0,0.5 -0.1,1 -0.2,1.5 -0.2,0.8 -0.5,1.7 -0.9,2.5 -0.5,1.2 -1.2,2.4 -1.5,3.7 -0.3,1.1 -0.4,2.3 -0.4,3.5 0,0.2 0,0.4 0,0.6 0,0.2 -0.1,0.3 -0.2,0.3 -0.1,0 -0.3,0 -0.4,-0.2 -0.3,-0.5 -0.6,-1.1 -0.8,-1.6 -0.3,-1 -0.4,-2.1 -0.4,-3.2 0,-2.1 0.2,-4.2 0.8,-6.3 0.3,-1.2 0.8,-2.5 1.1,-3.7 0.4,-1.7 0.5,-3.4 0.4,-5.2 -0.1,-1.1 -0.3,-2.2 -1,-3.1 -0.3,-0.4 -0.7,-0.7 -1.2,-0.7 -0.4,-0.1 -0.8,0 -1.1,0.3 -0.3,0.3 -0.3,0.7 -0.4,1.1 -0.1,0.8 -0.1,1.5 -0.2,2.2 -0.2,1.6 -0.4,3.2 -0.9,4.8 -0.7,2.5 -2,4.9 -3.3,7.2 -2.1,3.5 -4.5,6.7 -7.4,9.5 -2.4,2.4 -5.2,4.4 -7.9,6.5 -2.1,1.6 -4.2,3.2 -6.5,4.6 -1.1,0.7 -2.3,1.3 -3.3,2.2 -1,0.8 -1.8,1.9 -2.4,3 -1.1,1.8 -2,3.8 -2.2,6 -0.2,2.2 0.4,4.5 1,6.3 0.4,1.2 0.8,2.2 1.7,3.5 0.7,0.9 1.5,2 1.9,3.1 0.2,0.6 0.2,1.3 0.2,1.9 0,1 0,2 0.1,3 0.1,1.1 0.3,2.3 -0.1,3.4 -0.2,0.6 -0.5,1.1 -1,1.5 -0.5,0.5 -1.3,0.8 -2,1.1 -0.9,0.4 -1.8,0.9 -2.6,1.3 -1.4,0.8 -2.8,1.7 -4.2,2.6 -2.5,1.7 -4.9,3.4 -7.2,5.3 -2.5,2.1 -4.7,4.4 -6.8,6.8 -1.1,1.2 -2.1,2.5 -3.3,3.7 -0.5,0.6 -1.1,1.1 -1.4,1.8 -0.2,0.4 -0.2,0.9 -0.3,1.3 -0.1,0.5 -0.4,0.9 -0.6,1.3 -0.3,0.6 -0.6,1.3 -1.2,1.7 -0.4,0.4 -1,0.6 -1.5,0.8 -0.5,0.2 -1,0.4 -1.5,0.7 -0.8,0.4 -1.5,0.8 -2,1.5 -0.3,0.5 -0.4,1.2 -0.4,1.9 0.1,0.7 0.4,1.4 0.7,2.1 0.2,0.7 0.4,1.4 0.2,2 -0.2,0.6 -0.7,1.2 -1.3,1.6 -0.8,0.6 -1.7,0.9 -2.5,1.2 -1.5,0.5 -3,0.8 -4.5,1 -1.8,0.2 -3.6,0.3 -5.4,0.3 -1.3,0 -2.6,-0.1 -3.9,-0.2 -1.6,-0.1 -3.3,-0.3 -4.7,-0.9 -0.4,-0.2 -0.7,-0.4 -1,-0.6 -0.2,-0.1 -0.3,-0.3 -0.3,-0.5 -0.1,-0.7 0.1,-1.3 0.3,-1.8 0.3,-0.7 0.8,-1.4 1.2,-2.1 1.2,-1.7 2.6,-3.3 4.1,-4.7 1.5,-1.3 3.2,-2.4 4.9,-3.6 1.6,-1 3.2,-2.1 4.1,-3.6 0.3,-0.6 0.6,-1.2 0.8,-1.8 0.2,-0.5 0.4,-1.1 0.7,-1.6 0.5,-0.8 1.4,-1.4 2.3,-2 1.1,-0.8 2.2,-1.6 3.2,-2.5 3.5,-2.7 7.1,-5.4 10.5,-8.3 2.9,-2.5 5.7,-5.2 8.5,-8.5 1.2,-1.3 2.4,-2.8 2.7,-4.2 0.2,-0.9 0,-1.7 -0.4,-2.6 -0.4,-0.8 -1,-1.6 -1.5,-2.5 -1.8,-2.5 -3.3,-5.1 -4.7,-7.8 -1.6,-3.2 -3,-6.5 -4.2,-10 -1.7,-5 -3,-10.2 -3.1,-15.4 -0.1,-3.5 0.4,-7 1.1,-10.5 0.6,-3 1.5,-6 2.8,-8.7 1.4,-2.8 3.3,-5.2 4.8,-8 1.3,-2.4 2.3,-5 2.7,-7.6 0.2,-1.3 0.2,-2.6 -0.2,-3.8 v -0.1 c -0.1,-0.3 -0.4,-0.4 -0.7,-0.4 -0.3,0 -0.5,0.2 -0.6,0.5 -0.2,1.1 -0.4,2.2 -0.8,3.3 -1.3,4.3 -3.9,8 -6.1,12 -2.5,4.5 -4.3,9.3 -5.2,14.3 -0.8,4.3 -1,8.8 -0.5,13.1 0.5,4.3 1.6,8.5 3.3,12.5 0.6,1.5 1.3,3 1.9,4.6 0.4,1 0.7,2 0.8,3 0.1,1 0.1,2 -0.2,2.9 -0.2,0.7 -0.6,1.3 -0.8,1.9 -0.2,0.5 -0.3,0.9 -0.6,1.3 -0.5,0.6 -1.2,0.9 -2,1 -2,0.4 -4.1,-0.2 -6.1,-0.7 -4.4,-1.2 -8.6,-2.3 -13,-3.3 -3.8,-0.8 -7.7,-1.5 -11.7,-1.8 -3.2,-0.3 -6.5,-0.5 -9.6,-0.1 -1.7,0.2 -3.4,0.5 -5,1 -0.9,0.3 -1.8,0.5 -2.7,0.6 -1.2,0 -2.3,-0.4 -3.5,-0.8 -0.9,-0.3 -1.8,-0.7 -2.6,-0.6 -0.9,0.1 -1.6,0.7 -2.3,1.4 -0.5,0.6 -1,1.2 -1.3,1.9 -0.3,0.5 -0.5,1 -0.8,1.4 -0.4,0.5 -0.9,0.9 -1.5,1.1 -1.8,0.6 -4.2,0.1 -6.5,-0.5 -3.2,-0.8 -6,-1.9 -8.6,-3.5 -0.8,-0.5 -1.6,-1 -2.1,-1.8 -0.2,-0.3 -0.3,-0.6 -0.4,-0.9 -0.1,-0.4 0.1,-0.9 0.3,-1.3 0.6,-1.2 1.8,-2 3,-2.7 2.4,-1.4 4.9,-2.4 7.6,-3 1.9,-0.5 3.9,-0.7 6,-0.7 2,0 3.9,0.2 5.8,-0.1 1.5,-0.3 2.9,-0.9 4.4,-1.2 1.5,-0.3 3,-0.3 4.5,-0.2 1.3,0.1 2.5,0.2 3.3,0.3 0.7,0.1 0.9,0.2 1.5,0.4 1.3,0.3 4.5,0.5 7.5,0.6 6.4,0.3 12.2,0.2 17.4,0.3 1.3,0 2.5,0 3.8,0 0.8,0 1.6,-0.1 2.2,-0.4 0.8,-0.5 1.3,-1.5 1.8,-2.5 0.4,-0.8 1,-1.6 1,-2.4 0.1,-0.7 -0.1,-1.3 -0.4,-1.9 -0.7,-1.5 -1.7,-2.8 -2.6,-4.1 -3,-4.2 -5.2,-9.1 -7.3,-14 -1.6,-3.7 -3.3,-7.3 -4.4,-11.1 -1.2,-4 -1.9,-8.2 -2.1,-12.5 -0.1,-2.2 -0.1,-4.4 0.3,-6.5 0.1,-0.6 0.2,-1.1 0.3,-1.6 0,-0.2 0.2,-0.4 0.4,-0.5 0.2,-0.1 0.4,-0.1 0.6,0.1 1.1,0.8 2.1,1.5 3.2,2.2 2.3,1.6 4.7,3 7,4.6 2,1.4 4,3 5.8,4.7 0.8,0.7 1.5,1.5 2.3,2.2 0.3,0.3 0.6,0.6 0.9,0.9 0.1,0.2 0.3,0.3 0.5,0.4 0.1,0.1 0.3,0 0.5,0 0.2,-0.1 0.3,-0.2 0.3,-0.4 0.1,-0.3 0,-0.6 0,-0.9 -0.2,-0.7 -0.5,-1.4 -0.9,-2 -0.8,-1.1 -1.7,-2.2 -2.8,-3.1 -1.1,-0.9 -2.2,-1.8 -3.4,-2.6 -2.2,-1.6 -4.5,-3.1 -6.8,-4.7 -2.2,-1.5 -4.4,-3.1 -6.6,-4.8 -2.9,-2.3 -5.7,-4.7 -8.5,-7.2 -3.8,-3.3 -7.6,-6.5 -11.1,-10 -2.7,-2.7 -5.3,-5.6 -7.5,-8.8 -1.9,-2.7 -3.6,-5.7 -5.4,-8.4 -0.9,-1.2 -1.8,-2.4 -2.6,-3.8 -0.3,-0.5 -0.6,-1 -1,-1.3 -0.6,-0.5 -1.5,-0.5 -2.4,-0.7 -2.1,-0.4 -3.9,-1.4 -5.7,-2.4 -1.5,-0.8 -2.9,-1.6 -4,-2.9 -0.4,-0.5 -0.8,-1 -0.9,-1.6 0,-0.1 -0.1,-0.3 -0.1,-0.4 -0.2,-0.5 -0.8,-0.7 -1.3,-1 -1.7,-0.9 -3,-2.1 -4.4,-3.1 -2.1,-1.3 -4.5,-2.3 -6.7,-3.6 -1.2,-0.7 -2.2,-1.5 -3.3,-2.3 -1,-0.8 -2,-1.5 -3,-2.2 -0.7,-0.5 -1.4,-1 -2.2,-1.3 -0.7,-0.3 -1.4,-0.4 -2.1,-0.2 -0.6,0.2 -1.1,0.6 -1.5,1.2 -0.1,0.2 -0.3,0.5 -0.3,0.7 -0.1,0.6 0.2,1.2 0.4,1.8 0.5,1.4 0.8,2.7 1,4.1 0.3,1.8 0.5,3.7 0.6,5.6 0.1,2.6 -0.1,5.2 0.4,7.7 0.3,1.7 0.9,3.3 1.5,4.8 0.6,1.5 1.3,2.9 2.1,4.3 0.2,0.4 0.4,0.7 0.5,1.1 0.4,1 0.3,2.1 0.3,3.2 0,0.7 -0.1,1.4 0.2,2.1 0.3,0.8 0.9,1.4 1.6,1.9 0.9,0.5 2,0.6 3.1,1 1.4,0.4 2.6,1.3 3.4,2.4 1.3,1.9 1.3,4.5 1.3,6.9 -0.1,2.2 -0.2,4.3 -0.8,6.3 -0.3,0.9 -0.6,1.9 -1.1,2.7 -0.4,0.6 -0.9,1.2 -1.5,1.7 -0.4,0.3 -0.7,0.6 -1.2,0.8 -0.3,0.1 -0.7,0.2 -1,0.1 -0.6,-0.1 -1,-0.4 -1.5,-0.8 -2.5,-2 -4.2,-4.7 -5.8,-7.4 -1.2,-2.2 -2.3,-4.3 -3.2,-6.6 -0.6,-1.6 -1.1,-3.2 -2,-4.7 -0.4,-0.7 -0.8,-1.3 -1.3,-1.8 -0.6,-0.6 -1.3,-1.2 -1.8,-1.8 -0.8,-0.9 -1.3,-2 -1.4,-3.2 -0.1,-1.3 0.4,-2.7 0.1,-3.9 -0.2,-0.9 -0.7,-1.8 -1.1,-2.7 -0.7,-1.8 -0.6,-3.8 -0.6,-5.8 -0.1,-4.4 -1.1,-8.6 -1.9,-12.9 -0.5,-3.3 -0.9,-6.5 -1.3,-9.9 -0.2,-2 -0.4,-4.1 0.1,-6 0.5,-2 1.8,-3.6 3.1,-5.3 0.5,-0.6 0.9,-1.1 1.4,-1.6 1.2,-1.1 2.6,-2 4.1,-2.5 0.6,-0.2 1.2,-0.3 1.9,-0.4 2.4,-0.3 5,0.2 7.6,0.8 3.5,0.8 7.1,1.6 10.2,2.6 1.3,0.5 2.6,1 3.9,1.7 0.5,0.3 1,0.6 1.5,0.7 0.3,0.1 0.5,0.1 0.8,0.1 0.2,0 0.4,-0.1 0.5,-0.2 0.1,-0.1 -0.1,-0.3 -0.1,-0.4 -0.3,-0.4 -0.5,-0.6 -0.7,-0.9 -1.2,-1.2 -2.7,-2.4 -4.1,-3.6 -1.3,-1 -2.5,-2.1 -3.6,-3.2 -1.9,-2 -3.4,-4.3 -4.9,-6.6 -0.7,-1.1 -1.4,-2.2 -2.3,-3.2 -0.3,-0.3 -0.5,-0.6 -0.8,-0.9 -0.1,-0.1 -0.2,-0.2 -0.3,-0.3 -0.3,-0.2 -0.8,-0.1 -1.2,0 -0.5,0 -0.9,0 -1.3,-0.1 -0.2,0 -0.4,-0.1 -0.6,-0.1 -0.1,0 -0.3,0.1 -0.4,0.2 -0.4,0.3 -0.7,0.8 -0.9,1.3 -0.9,1.7 -1.8,3.4 -2.8,4.9 -0.8,1.2 -1.7,2.3 -2.7,3.4 -1.3,1.6 -2.8,3 -4.1,4.6 -0.8,0.8 -1.5,1.7 -2.2,2.5 -0.7,0.8 -1.3,1.6 -1.9,2.4 -0.7,0.9 -1.3,1.9 -1.8,2.9 -0.6,1.4 -0.9,2.9 -1.1,4.4 -0.1,0.8 -0.1,1.7 -0.4,2.5 -0.3,0.9 -0.8,1.7 -1.5,2.5 -0.3,0.4 -0.7,0.8 -0.8,1.3 -0.3,0.8 0,1.7 0.4,2.4 0.4,0.7 0.8,1.2 1.3,1.8 0.4,0.5 0.7,1.1 0.8,1.7 0.1,0.8 -0.1,1.7 -0.5,2.5 -1.2,2.6 -3.7,4.2 -6.1,5.6 -1.6,0.9 -3.2,1.7 -4.8,2.3 -0.6,0.2 -1.3,0.5 -2,0.6 -0.6,0.2 -1.3,0.3 -1.9,0.1 -0.2,-0.1 -0.4,-0.2 -0.6,-0.4 -0.4,-0.4 -0.3,-1 -0.3,-1.6 0,-1.2 0.1,-2.4 0.2,-3.5 0.2,-1.5 0.5,-3 0.8,-4.5 0.4,-1.5 0.8,-2.9 1.5,-4.3 0.4,-0.8 0.8,-1.6 1.2,-2.4 0.2,-0.4 0.4,-0.9 0.5,-1.3 0.2,-0.8 0.1,-1.5 0.2,-2.2 0.1,-1 0.3,-1.9 0.7,-2.8 0.7,-1.8 1.6,-3.6 2.6,-5.2 1.5,-2.4 3,-4.6 4.4,-7.1 1.6,-2.8 3,-5.8 4.5,-8.6 1.8,-3.4 3.8,-6.6 5.6,-9.8 0.7,-1.2 1.3,-2.4 2.1,-3.7 1,-1.6 2.1,-3.2 3.1,-4.8 0.5,-0.8 1,-1.7 1.5,-2.5 0.6,-0.9 1.2,-1.7 2,-2.4 1.5,-1.3 3.4,-2.2 5.4,-2.3 2.3,-0.2 4.8,0.4 6.9,1.5 1.4,0.7 2.7,1.6 3.9,2.6 1.2,0.9 2.3,2 2.9,3 0.2,0.3 0.3,0.6 0.6,0.9 0.5,0.5 1.4,1 2.1,1.5 2.4,1.5 3.9,2.5 5.5,3.6 1.8,1.2 3.7,2.6 5.7,3.9 0.9,0.7 1.9,1.4 2.8,2.1 0.2,0.2 0.4,0.3 0.6,0.5 0.3,0.2 0.6,0.2 0.8,0 1.5,-1.3 3,-2.6 4.6,-3.8 1.8,-1.4 3.7,-2.7 5.9,-3.7 1.5,-0.7 3.2,-1.3 4.4,-1.8 0.7,-0.3 1.2,-0.5 1.8,-0.9 1.1,-0.7 2.2,-1.9 3.2,-3.2 0.9,-1.3 1.6,-2.6 2.5,-3.9 1.4,-2 3.3,-3.6 5.1,-5.3 2,-1.9 3.8,-3.9 5.5,-6 1.8,-2.2 3.4,-4.4 4.8,-6.8 2,-3.4 3.4,-7.1 5,-10.7 0.8,-1.9 1.6,-3.7 2.3,-5.7 0.2,-0.5 0.3,-0.9 0.4,-1.4 0,-0.6 -0.1,-1.2 -0.3,-1.8 -0.2,-0.4 -0.4,-0.8 -0.8,-1.1 -0.2,-0.1 -0.5,-0.2 -0.8,-0.2 -0.4,0 -0.9,0.2 -1.3,0.3 -0.9,0.3 -1.9,0.4 -2.9,0.3 -3,-0.1 -5.9,-1.1 -8.8,-1.8 -2,-0.5 -4,-0.9 -6,-1.2 -1.5,-0.2 -3,-0.4 -4.5,-0.2 -1.4,0.2 -2.7,0.6 -3.9,1.2 -0.9,0.4 -1.9,0.8 -2.8,1.1 -1.5,0.5 -3.2,0.6 -4.6,0.1 -0.8,-0.3 -1.5,-0.8 -2,-1.4 -0.3,-0.3 -0.5,-0.6 -0.5,-0.9 0,-0.3 0.1,-0.6 0.3,-0.8 0.3,-0.3 0.6,-0.4 1,-0.5 1.3,-0.3 2.6,-0.6 3.9,-1 0.7,-0.2 1.4,-0.4 2.1,-0.7 0.4,-0.1 0.7,-0.3 1,-0.5 0.2,-0.2 0.3,-0.4 0.4,-0.6 0,-0.2 -0.1,-0.5 -0.2,-0.6 -0.2,-0.2 -0.4,-0.3 -0.6,-0.3 -0.3,0 -0.6,0 -0.9,0.1 -1.1,0.3 -2.1,0.7 -3.2,1 -1.6,0.5 -3.3,0.9 -4.9,1.2 -0.5,0.1 -1.1,0.1 -1.7,0.2 -0.3,0 -0.7,0 -1,-0.1 -0.3,-0.1 -0.5,-0.4 -0.6,-0.7 -0.5,-0.9 -0.4,-1.5 -0.6,-2.4 -0.1,-0.7 -0.3,-1.4 -0.3,-2.3 0,-1.6 0.9,-3.3 1.8,-4.8 0.8,-1.4 1.5,-2.6 2.3,-3.7 0.5,-0.7 1,-1.4 1.7,-2 1,-0.9 2.3,-1.5 3.6,-1.8 1.1,-0.2 2.2,-0.3 3.3,-0.4 2,-0.2 3.9,-0.9 5.7,-1.6 3.6,-1.3 7.2,-2.5 10.4,-4.5 1.9,-1.1 3.6,-2.5 5.6,-3.6 1.4,-0.8 3,-1.5 4.5,-1.7 0.6,-0.1 1.1,-0.1 1.7,-0.4 0.2,-0.1 0.3,-0.2 0.4,-0.4 0.1,-0.2 -0.1,-0.4 -0.2,-0.6 -0.2,-0.2 -0.4,-0.3 -0.6,-0.3 -0.4,-0.1 -0.9,0.1 -1.4,0.3 -0.3,0.1 -0.6,0.2 -0.9,0.1 -0.2,0 -0.4,-0.2 -0.4,-0.3 -0.1,-0.2 0.1,-0.4 0.2,-0.6 0.2,-0.1 0.4,-0.2 0.6,-0.2 0.2,0 0.3,-0.1 0.5,-0.2 0.2,-0.1 0.5,-0.2 0.6,-0.4 0,-0.1 0,-0.3 -0.1,-0.4 -0.1,-0.2 -0.4,-0.1 -0.6,-0.1 -0.9,0.1 -1.5,0 -2.2,-0.2 -0.8,-0.2 -1.7,-0.5 -2.5,-0.7 -1,-0.3 -1.9,-0.7 -3,-0.9 -1,-0.2 -2.2,-0.2 -3.2,0 -0.7,0.1 -1.4,0.4 -2.2,0.5 -0.3,0 -0.6,0 -0.8,-0.1 -0.2,-0.2 -0.2,-0.6 0,-0.9 0.2,-0.2 0.4,-0.3 0.7,-0.5 0.7,-0.3 1.3,-0.6 1.9,-0.8 0.6,-0.2 1.3,-0.4 2,-0.4 0.8,-0.1 1.5,0 2.3,0.1 0.5,0.1 0.9,0.2 1.4,0.2 0.5,0 1,0 1.5,0 0.3,0 0.7,-0.1 0.9,-0.4 0.1,-0.1 0.2,-0.3 0.1,-0.5 -0.1,-0.2 -0.5,-0.2 -0.8,-0.2 -0.9,0 -1.6,-0.2 -2.2,-0.4 -0.3,-0.1 -0.7,-0.1 -1.1,-0.2 -0.5,-0.1 -1,-0.3 -1.3,-0.6 -0.1,-0.1 -0.2,-0.3 -0.2,-0.5 0,-0.2 0,-0.3 0.2,-0.4 0.1,0 0.2,0 0.3,0 1.1,0.1 2,0 3,-0.2 1.3,-0.3 2.6,-0.6 3.9,-0.6 1.4,0 2.7,0.4 4,0.9 1.5,0.6 2.8,1.3 4.3,1.9 1.1,0.4 2.2,0.8 3.3,0.8 0.8,0 1.6,-0.1 2.3,-0.5 0.3,-0.2 0.6,-0.4 0.8,-0.7 0.1,-0.2 0.2,-0.4 0.2,-0.6 0,-0.5 -0.5,-0.8 -0.9,-1.2 -0.5,-0.6 -0.6,-1.4 -0.5,-2.1 0.1,-0.8 0.4,-1.6 0.7,-2.4 0.4,-0.9 0.7,-1.8 1,-2.7 0.1,-0.3 0.2,-0.6 0.2,-0.9 0,-0.1 0.1,-0.2 0.3,-0.2 0.1,0 0.3,0 0.3,0.1 0.5,0.6 0.9,1.2 1.5,1.8 1,1 2.1,1.8 3.3,2.6 1.2,0.9 2.3,1.7 3.4,2.7 0.8,0.8 1.6,1.6 2.3,2.5 0.3,0.4 0.6,0.8 0.9,1.3 0.1,0.2 0.3,0.3 0.6,0.3 1.4,-0.1 2.8,-0.2 4.3,0 1.4,0.2 2.8,0.8 4.1,1.6 1.4,0.8 2.6,1.9 3.8,3.3 0.5,0.6 1.1,1.3 1.7,1.7 0.8,0.5 1.6,0.6 2.5,0.7 2.4,0.2 5,0.3 7.5,0.2 1.3,-0.1 2.7,-0.2 3.9,0 1.2,0.2 2.2,0.7 3.2,1.4 0.6,0.4 1.2,0.9 1.7,1.5 0.2,0.3 0.4,0.6 0.4,0.9 0,0.3 -0.2,0.5 -0.4,0.7 -0.4,0.3 -1,0.3 -1.5,0.2 -0.5,-0.2 -1,-0.5 -1.5,-0.8 -0.4,-0.2 -0.9,-0.4 -1.3,-0.4 -1,-0.1 -2.1,0.2 -3.1,0.5 -1.3,0.4 -2.6,0.7 -3.8,1.1 -0.7,0.2 -1.4,0.5 -2,0.9 -0.2,0.1 -0.4,0.3 -0.7,0.4 -0.1,0.1 -0.2,0.2 -0.1,0.3 0,0.1 0.1,0.2 0.3,0.3 0.7,0.1 1.5,0.2 2.2,0.4 1.5,0.3 3,0.7 4.5,1.4 1.5,0.7 2.9,1.7 4.2,2.6 0.8,0.6 1.6,1.1 2.5,1.6 0.5,0.2 1,0.5 1.5,0.5 0.8,0.1 1.6,0 2.4,0 1.9,0 3.9,0.8 5.3,1.9 0.9,0.7 1.7,1.5 2.5,2.2 0.7,0.6 1.6,1.1 2.4,1.6 0.4,0.3 0.8,0.5 1.2,0.8 0.2,0.2 0.4,0.5 0.6,0.7 0.1,0.1 0.1,0.3 0,0.5 -0.1,0.2 -0.2,0.3 -0.4,0.3 -0.2,0 -0.4,0 -0.6,0 -0.7,0 -1.4,-0.2 -2.1,-0.4 -0.6,-0.3 -1.2,-0.6 -1.8,-1 -1,-0.6 -2,-1.3 -3.1,-1.5 -0.8,-0.2 -1.7,-0.2 -2.5,-0.1 -1.3,0.1 -2.5,0.3 -3.7,0.4 -1.2,0 -2.4,-0.1 -3.6,-0.4 -1.5,-0.4 -3,-1 -4.3,-1.4 -1.7,-0.6 -3.3,-0.9 -5.6,-1.6 -0.6,-0.2 -1.2,-0.3 -1.4,0 -0.2,0.2 -0.2,0.6 -0.1,0.9 0.1,0.2 0.3,0.3 0.5,0.5 0.5,0.4 1,0.6 1.6,0.9 0.9,0.4 1.7,0.9 2.6,1.4 0.9,0.4 1.8,0.8 2.6,1.4 0.8,0.6 1.5,1.5 2.1,2.4 0.5,0.8 1,1.6 1.7,2.1 0.6,0.4 1.3,0.6 2.1,0.7 1.1,0.2 2.2,0.1 3.3,0.2 1.4,0.1 2.7,0.5 4,1 1.8,0.7 3.4,1.6 5,2.6 1.1,0.8 2.2,1.6 2.9,2.8 0.3,0.5 0.4,1 0.4,1.5 -0.1,0.4 -0.3,0.7 -0.5,1 0,0.1 -0.1,0.1 -0.2,0.1 -0.1,0 -0.1,0 -0.2,-0.1 -0.3,-0.4 -0.7,-0.9 -1.1,-1.3 -0.6,-0.7 -1.4,-1.4 -2.2,-2 -0.7,-0.5 -1.5,-0.9 -2.3,-1.1 -0.4,-0.1 -0.8,-0.2 -1.2,-0.2 -0.6,0 -1.3,0.2 -1.9,0.4 -1.2,0.3 -2.4,0.5 -3.7,0.5 -0.9,0 -1.8,0 -2.6,-0.2 -0.8,-0.2 -1.6,-0.5 -2.3,-0.9 -0.7,-0.4 -1.4,-0.8 -2,-1.4 -0.4,-0.4 -0.8,-0.8 -1.2,-1.1 -0.2,-0.1 -0.4,-0.2 -0.7,-0.4 -0.2,-0.1 -0.4,-0.2 -0.5,-0.1 -0.1,0.1 -0.1,0.3 -0.1,0.5 0.1,0.6 0.5,1 1,1.3 1.2,1 2.2,2.1 3.2,3.2 0.5,0.5 1,1 1.5,1.3 0.4,0.3 0.8,0.5 1.2,0.7 0.5,0.2 1.1,0.3 1.7,0.4 1.3,0.3 2.4,0.8 3.5,1.5 0.9,0.5 1.7,1.1 2.5,1.6 0.3,0.2 0.6,0.4 1,0.5 0.5,0.2 1.1,0.4 1.7,0.4 0.4,0 0.7,-0.1 1.1,0.1 0.2,0.1 0.3,0.2 0.4,0.3 0.1,0.2 0,0.4 -0.1,0.6 -0.2,0.4 -0.8,0.6 -1.3,0.9 -0.7,0.3 -1.3,0.4 -1.9,0.4 -0.6,-0.1 -1.1,-0.2 -1.7,-0.4 -1.2,-0.4 -2.5,-0.9 -3.8,-1.3 -1.2,-0.3 -2.5,-0.5 -3.8,-0.7 -1,-0.2 -1.9,-0.4 -2.8,-0.8 -0.7,-0.3 -1.4,-0.6 -2,-1 -0.8,-0.5 -1.5,-1 -2.2,-1.5 -0.9,-0.5 -1.9,-0.9 -2.9,-0.9 -0.6,0 -1.1,0.1 -1.6,0.3 -0.3,0.1 -0.6,0.3 -0.8,0.6 -0.1,0.1 -0.1,0.2 -0.1,0.3 -0.1,0.3 0.4,0.5 0.8,0.7 1.8,0.7 3,0.8 4.3,1.2 1.3,0.4 2.7,1.2 4.1,2 1,0.6 2,1.1 2.8,1.9 0.8,0.9 1.4,2 2,3.2 0.3,0.5 0.5,1.1 0.9,1.5 0.6,0.7 1.6,1 2.4,1.5 0.7,0.4 1.3,0.9 1.8,1.5 0.6,0.8 1,1.9 1.7,2.6 0.7,0.7 1.8,1.1 2.8,1.5 0.5,0.2 1,0.4 1.5,0.7 0.4,0.2 0.7,0.5 0.8,0.9 0,0.2 -0.1,0.4 -0.2,0.6 -0.3,0.4 -1,0.3 -1.6,0.2 -0.7,-0.1 -1.2,-0.1 -1.8,-0.2 -0.5,0 -1.1,0 -1.5,-0.2 -0.6,-0.2 -1.2,-0.7 -1.7,-1.2 -0.7,-0.7 -1.3,-1.4 -2,-1.9 -0.7,-0.4 -1.5,-0.8 -2.3,-1 -1.5,-0.5 -3,-0.7 -4.5,-1.3 -1.2,-0.5 -2.3,-1.2 -3.5,-1.8 -1.1,-0.5 -2.4,-0.8 -3.4,-1.4 -0.4,-0.2 -0.7,-0.5 -1.2,-0.8 -0.3,-0.1 -0.5,-0.3 -0.7,-0.2 -0.1,0.1 -0.2,0.3 -0.2,0.5 0,0.9 0.6,1.4 1.1,2 0.4,0.5 0.7,1 1,1.5 0.9,1.2 2.4,1.9 3.8,2.6 1.5,0.8 2.9,1.6 4.1,2.8 0.9,0.8 1.7,1.7 2.3,2.7 0.2,0.4 0.4,0.8 0.6,1.2 0.3,0.7 0.4,1.5 0.7,2.1 0.5,1.2 1.4,2.1 2.5,2.7 1.1,0.6 2.4,0.8 3.7,1.1 0.7,0.2 1.4,0.3 1.9,0.7 0.4,0.3 0.6,0.6 0.9,1 0.1,0.2 0.2,0.4 0.2,0.6 -0.1,0.3 -0.5,0.3 -0.9,0.4 -0.8,0.1 -1.4,0.2 -2.1,0.3 -0.7,0.1 -1.5,0.2 -2.3,0.1 -0.9,-0.1 -1.8,-0.4 -2.6,-0.7 -1,-0.4 -1.9,-0.9 -2.7,-1.4 -0.6,-0.4 -1.2,-0.9 -1.8,-1.4 -0.5,-0.5 -0.9,-1 -1.4,-1.5 -0.2,-0.3 -0.5,-0.5 -0.7,-0.7 -0.8,-0.6 -2,-0.8 -3,-1 -1.2,-0.2 -2.3,-0.5 -3.4,-0.9 -0.7,-0.3 -1.3,-0.6 -2,-0.8 -0.7,-0.2 -1.4,-0.2 -2,-0.1 -0.3,0.1 -0.5,0.2 -0.8,0.4 -0.1,0.1 -0.2,0.3 -0.2,0.4 0,0.2 0.2,0.5 0.4,0.7 0.6,0.5 1.3,0.7 1.9,0.9 0.8,0.3 1.6,0.6 2.2,1.1 0.6,0.5 1.2,1.1 1.6,1.7 0.6,0.8 1.1,1.7 1.8,2.3 0.5,0.5 1.2,0.9 1.8,1.2 1.1,0.6 2.3,1 3.4,1.7 0.8,0.5 1.5,1.1 2.1,1.8 0.9,0.9 1.6,2 2.4,3 0.5,0.7 1.1,1.4 1.4,2.2 0.2,0.4 0.3,0.8 0.5,1.2 0.3,0.5 0.7,1 1.2,1.3 0.3,0.2 0.7,0.3 0.8,0.6 0.1,0.2 0.1,0.4 0,0.6 -0.1,0.3 -0.4,0.4 -0.7,0.5 -0.3,0.1 -0.7,0 -1,-0.1 -0.5,-0.2 -1,-0.5 -1.4,-1 -0.7,-0.7 -1.2,-1.5 -2,-2.1 -0.7,-0.6 -1.5,-1.1 -2.3,-1.4 -0.5,-0.2 -1.1,-0.3 -1.6,-0.4 -1.4,-0.4 -2.6,-1.3 -3.9,-2 -0.7,-0.4 -1.3,-0.7 -2,-1 -0.5,-0.2 -0.9,-0.4 -1.4,-0.5 -0.1,0 -0.3,-0.1 -0.4,-0.1 -0.1,0 -0.2,0 -0.3,0.1 0,0.1 0,0.2 0.1,0.3 0.1,0.1 0.2,0.2 0.3,0.3 0.3,0.3 0.6,0.8 0.8,1.1 0.4,0.5 0.9,0.9 1.4,1.3 0.6,0.4 1.2,0.7 1.8,1.1 0.3,0.2 0.5,0.3 0.8,0.6 0.2,0.3 0.5,0.6 0.4,0.8 -0.1,0.2 -0.3,0.3 -0.6,0.4 -0.7,0.2 -1.4,0.1 -2,-0.2 -0.7,-0.3 -1.3,-0.7 -1.9,-1.2 -0.2,-0.2 -0.5,-0.3 -0.7,-0.5 -0.5,-0.3 -1.2,-0.5 -1.8,-0.7 -0.4,-0.2 -0.8,-0.3 -1.3,-0.4 -0.3,0 -0.6,0 -0.7,0.1 -0.2,0.2 0.1,0.7 0.4,1.1 0.5,0.8 1.1,1.2 1.7,1.5 1.2,0.6 2.6,1 4.1,1.3 1.1,0.2 2.1,0.4 3,0.8 0.6,0.3 1.3,0.6 1.8,1.1 0.8,0.7 1.5,1.5 2.4,2.1 0.7,0.5 1.5,1 2.3,1.3 0.6,0.3 1.3,0.5 1.9,0.6 0.3,0 0.6,0 0.8,0.1 0.3,0.1 0.5,0.4 0.6,0.8 0,0.3 -0.1,0.7 -0.4,0.9 -0.4,0.4 -0.9,0.5 -1.5,0.6 -1.3,0.2 -2.4,0 -3.6,-0.2 -1.2,-0.2 -2.5,-0.6 -3.6,-1.2 -1,-0.5 -1.9,-1.2 -2.9,-1.8 -0.9,-0.5 -2,-0.9 -3,-1 -0.8,-0.1 -1.7,-0.1 -2.5,0 -0.8,0.1 -1.5,0.3 -2.2,0.6 -0.1,0 -0.2,0.2 -0.2,0.3 0,0.1 0.1,0.3 0.2,0.3 0.1,0.1 0.3,0.1 0.5,0.2 1,0.3 2.2,0.2 3.3,0.2 1.3,0.1 2.5,0.4 3.7,0.9 0.8,0.4 1.5,0.8 2.2,1.4 0.6,0.5 1.1,1.1 1.7,1.6 0.6,0.6 1.2,1.1 1.9,1.6 0.3,0.2 0.7,0.4 1,0.6 0.3,0.2 0.5,0.4 0.8,0.6 0.1,0.1 0.2,0.2 0.3,0.3 0.1,0.2 0,0.5 -0.1,0.6 -0.1,0.1 -0.3,0.1 -0.4,0.2 -0.4,0 -0.8,0 -1.2,-0.2 -1,-0.4 -1.8,-1 -2.8,-1.5 -1,-0.5 -2.2,-0.7 -3.3,-0.7 -1,0 -1.9,0.1 -2.8,0.2 -1.4,0.2 -2.8,0.4 -4.3,0.4 -1.1,0 -2.2,-0.2 -3.2,-0.4 -1.1,-0.3 -2.3,-0.8 -3.3,-1.1 -0.5,-0.1 -0.9,-0.3 -1.4,-0.5 -0.3,-0.1 -0.6,-0.2 -0.8,-0.1 -0.1,0.1 -0.2,0.2 -0.3,0.4 -0.1,0.4 0.5,0.7 1,1 1,0.4 1.7,0.7 2.4,1 1.3,0.6 2.8,1.3 4.3,1.8 1.3,0.4 2.7,0.6 4,1.1 1,0.4 2,1.1 2.9,1.9 0.8,0.7 1.6,1.5 2.4,2.4 0.7,0.7 1.3,1.5 2.1,2.1 0.8,0.6 1.8,1.2 2.8,1.4 1,0.3 2,0.2 3,0.1 1,-0.1 2,-0.4 2.9,-0.8 0.6,-0.3 1.3,-0.6 1.8,-1 0.2,-0.2 0.5,-0.4 0.7,-0.5 0.2,-0.1 0.3,-0.2 0.6,-0.3 0.2,0 0.4,0 0.6,0.1 0.3,0.2 0.1,0.8 -0.2,1.3 -0.4,0.7 -0.8,1 -1.3,1.3 -0.7,0.5 -1.6,1 -2.5,1.4 -0.9,0.4 -1.8,0.6 -2.7,0.8 -1.2,0.2 -2.3,0.3 -3.5,0.1 -1.4,-0.2 -2.8,-0.7 -4.1,-1.3 -1.6,-0.7 -3.2,-1.4 -4.9,-2.2 -1.1,-0.5 -2.2,-0.9 -3.3,-1.2 -1.2,-0.3 -2.5,-0.5 -3.8,-0.8 -1.1,-0.2 -2.3,-0.5 -3.4,-0.9 -0.5,-0.2 -1.1,-0.4 -1.6,-0.5 -0.2,0 -0.3,0 -0.4,0.1 -0.1,0.2 0,0.3 0.1,0.4 0.2,0.2 0.4,0.3 0.6,0.5 1,0.7 2,1.3 3.1,1.5 0.6,0.2 1.3,0.2 1.9,0.4 1,0.3 1.9,0.7 2.8,1.2 0.9,0.5 1.7,1 2.5,1.6 0.8,0.7 1.5,1.4 2.3,2.1 0.8,0.7 1.7,1.3 2.5,2 0.3,0.2 0.5,0.5 0.7,0.8 0.3,0.5 0.2,1.2 0.1,1.8 0,0.2 -0.1,0.4 -0.1,0.4 -0.2,0.3 -0.9,-0.2 -1.5,-0.7 -1.1,-0.9 -1.7,-1.5 -2.5,-2.1 -0.8,-0.7 -1.8,-1.3 -2.9,-1.8 -1,-0.4 -2,-0.7 -3,-0.8 -0.5,-0.1 -1,-0.2 -1.7,-0.1 -0.2,0 -0.4,0.1 -0.5,0.2 -0.1,0.2 0,0.5 0.2,0.7 0.3,0.4 0.8,0.4 1.3,0.4 0.9,0.1 1.7,0.5 2.4,0.9 0.8,0.5 1.5,1.1 2.3,1.8 0.6,0.5 1.2,1.1 1.6,1.8 0.3,0.4 0.5,0.9 0.7,1.4 0.3,0.7 0.8,1.3 1.2,1.9 0.4,0.5 0.8,1 1.3,1.4 0.5,0.2 1,0.3 1.4,0.7 0.2,0.1 0.3,0.3 0.3,0.5 0.1,0.3 0,0.6 -0.2,0.7 -1.8,1.3 -2.1,1.3 -2.4,1.3 z m -130.7,-7.1 c 0.2,-0.6 0.4,-1.3 0,-1.4 -0.2,-0.1 -0.4,0 -0.7,0.1 -0.4,0.2 -0.6,0.4 -0.8,0.8 -0.2,0.3 -0.3,0.5 -0.4,0.8 -0.2,0.4 -0.3,0.8 -0.4,1.1 -0.1,0.3 -0.2,0.6 -0.2,0.9 0,0.2 0,0.5 0.2,0.5 0.1,0 0.4,-0.1 0.5,-0.2 0.5,-0.3 0.8,-0.7 1,-1 0.3,-0.5 0.6,-0.9 0.8,-1.6 z m 97.4,131.9 c 0.1,-0.3 0,-0.6 -0.2,-0.8 -0.2,-0.2 -0.4,-0.2 -0.7,-0.2 -0.3,0 -0.6,0 -0.9,0.2 -0.2,0.1 -0.5,0.3 -0.7,0.5 -0.1,0.2 -0.3,0.3 -0.4,0.5 -0.2,0.3 -0.4,0.7 -0.3,0.9 0.1,0.1 0.4,0.1 0.6,0.1 0.3,0 0.5,0 0.7,-0.1 0.3,-0.1 0.6,-0.2 1,-0.3 0.4,-0.2 0.8,-0.4 0.9,-0.8 z m 24.8,-198.6 c 0.1,-0.1 0.1,-0.4 0,-0.7 -0.1,-0.4 -0.3,-0.6 -0.5,-0.9 -0.2,-0.2 -0.3,-0.4 -0.5,-0.6 -0.3,-0.3 -0.5,-0.6 -0.8,-0.8 -0.3,-0.2 -0.7,-0.4 -1.1,-0.4 -0.5,-0.1 -1.1,-0.1 -1.7,0.1 -0.4,0.1 -0.8,0.3 -1.1,0.7 -0.1,0.1 -0.2,0.3 -0.2,0.4 0,0.3 0.3,0.4 0.6,0.6 0.6,0.4 1.1,0.7 1.7,0.9 0.6,0.2 1.3,0.3 1.8,0.5 0.3,0.1 0.6,0.2 0.9,0.3 0.4,-0.1 0.8,0 0.9,-0.1 z m -0.7,-13.7 c 0.1,-0.1 0.1,-0.2 0,-0.4 0,-0.3 -0.3,-0.5 -0.4,-0.8 -0.3,-0.3 -0.5,-0.6 -0.7,-0.9 -0.1,-0.1 -0.2,-0.3 -0.3,-0.4 -0.2,-0.2 -0.5,-0.5 -0.7,-0.6 -0.3,-0.1 -0.7,-0.1 -1.1,-0.1 -0.5,0 -1,0.1 -1.4,0.5 -0.2,0.2 -0.4,0.5 -0.4,0.8 0,0.2 0.2,0.4 0.4,0.5 0.3,0.3 0.6,0.4 1,0.6 0.5,0.2 1,0.3 1.6,0.5 0.5,0.1 0.9,0.2 1.5,0.3 0.1,0.1 0.4,0.1 0.5,0 z m -0.3,-6.4 c 0.1,0 0.1,-0.1 0,-0.2 0,-0.3 -0.2,-0.5 -0.4,-0.8 -0.2,-0.3 -0.5,-0.5 -0.7,-0.8 -0.3,-0.3 -0.6,-0.7 -1,-0.8 -0.4,-0.1 -0.8,-0.1 -1.2,-0.1 -0.6,0 -1.1,0.1 -1.5,0.6 -0.2,0.2 -0.3,0.4 -0.3,0.6 0,0.2 0.4,0.4 0.7,0.5 0.4,0.2 0.8,0.3 1.1,0.4 0.4,0.1 0.8,0.2 1.2,0.3 0.4,0.1 0.8,0.2 1.5,0.3 0.2,0.1 0.5,0.1 0.6,0 z m -8,-24.2 c 0.1,-0.2 -0.1,-0.5 -0.2,-0.8 -0.3,-0.4 -0.5,-0.6 -0.8,-0.8 -0.3,-0.4 -0.5,-0.7 -0.9,-0.9 -0.3,-0.1 -0.8,-0.1 -1.2,-0.1 -0.4,0 -0.7,0 -1,0.3 -0.3,0.2 -0.6,0.6 -0.5,0.8 0.1,0.2 0.3,0.3 0.5,0.4 0.3,0.2 0.6,0.4 0.9,0.5 0.5,0.2 1.2,0.3 1.8,0.5 0.3,0.1 0.6,0.3 1,0.2 0.2,0.1 0.3,0.1 0.4,-0.1 z m -20.9,23.4 c 0.1,-0.2 0.2,-0.6 0.2,-0.7 -0.1,-0.2 -0.6,0.1 -1,0.3 -0.4,0.3 -0.7,0.5 -1,0.8 -0.3,0.3 -0.7,0.7 -1.1,1 -0.7,0.6 -1.3,1.1 -2,1.7 -0.8,0.6 -1.7,1.2 -2.6,1.6 -0.8,0.3 -1.6,0.6 -2.3,1 -0.2,0.1 -0.5,0.3 -0.7,0.4 -0.1,0 -0.2,0.1 -0.2,0.1 -0.2,0.2 -0.2,0.6 -0.1,0.7 0.1,0.1 0.2,0.1 0.4,0.1 0.3,0 0.6,0 0.9,0 0.3,0.1 0.6,0.2 0.9,0.2 0.8,0.2 1.7,0.1 2.5,-0.2 0.6,-0.3 1.2,-0.6 1.6,-1.1 0.6,-0.5 1,-1.2 1.4,-1.9 0.2,-0.4 0.4,-0.8 0.7,-1.1 0.3,-0.3 0.7,-0.6 1,-0.8 0.4,-0.4 0.8,-0.9 1.1,-1.4 0,-0.3 0.2,-0.4 0.3,-0.7 z m -15.5,-16 c 0.1,-0.2 0.1,-0.4 -0.1,-0.5 -0.2,-0.1 -0.4,-0.1 -0.5,0 -4.1,3.3 -8.9,5.6 -14.1,6.6 -0.2,0 -0.4,0.2 -0.3,0.4 0,0.2 0.2,0.4 0.4,0.4 0.3,0 0.5,0 0.8,0 1.8,0 3.6,-0.4 5.4,-0.9 1.3,-0.4 2.6,-0.7 3.8,-1.4 0.9,-0.4 1.7,-1 2.4,-1.7 0.8,-0.9 1.5,-1.9 2.2,-2.9 z m -14.4,19.2 c 0.2,-0.4 0.2,-0.8 0,-1 -0.1,-0.1 -0.4,-0.2 -0.6,-0.2 -0.3,0 -0.5,0 -0.8,0.1 -0.4,0.1 -0.9,0.3 -1.1,0.6 -0.1,0.2 -0.1,0.4 -0.1,0.6 0,0.3 0.1,0.5 0.2,0.8 0.1,0.2 0.2,0.4 0.4,0.4 0.1,0.1 0.2,0 0.3,0 0.3,-0.1 0.6,-0.2 0.9,-0.4 0.3,-0.3 0.6,-0.5 0.8,-0.9 z m 57.6,37.8 c 0.1,-0.2 0,-0.5 -0.1,-0.8 -0.2,-0.4 -0.4,-0.6 -0.6,-0.8 -0.3,-0.4 -0.5,-0.8 -0.9,-1 -0.5,-0.3 -1.1,-0.4 -1.7,-0.2 -0.3,0.1 -0.6,0.2 -0.9,0.4 -0.2,0.1 -0.4,0.2 -0.4,0.4 -0.2,0.4 0.7,0.8 1.3,1.1 0.3,0.2 0.6,0.3 0.9,0.4 0.5,0.2 1,0.3 1.7,0.5 0.2,0 0.6,0.1 0.7,0 z m -1.2,5.6 c 0.2,-0.2 -0.3,-0.7 -0.5,-1 -0.2,-0.2 -0.3,-0.3 -0.4,-0.5 -0.2,-0.3 -0.4,-0.5 -0.6,-0.7 -0.4,-0.3 -1,-0.3 -1.5,-0.2 -0.4,0.1 -0.7,0.4 -1,0.7 -0.1,0.1 -0.1,0.2 -0.1,0.3 0,0.2 0.2,0.3 0.5,0.5 0.8,0.4 1.4,0.6 2,0.8 0.4,0.1 0.7,0.2 1.2,0.2 0.1,0 0.3,0 0.4,-0.1 z m -0.3,98.6 c 0,-0.2 -0.2,-0.5 -0.4,-0.7 -0.3,-0.3 -0.8,-0.3 -1.3,-0.3 -0.8,0 -1.5,0.1 -2.2,0.3 -0.7,0.2 -1.4,0.6 -2,1.1 -0.7,0.6 -1.2,1.3 -1.7,2 -0.5,0.8 -0.9,1.5 -1.1,2.4 -0.2,1 -0.1,2.2 0.2,3.1 0.1,0.4 0.3,0.7 0.5,1 0.1,0.2 0.3,0.3 0.4,0.3 0.3,0 0.5,-0.4 0.7,-0.9 0.4,-0.9 0.5,-1.6 0.8,-2.3 0.2,-0.5 0.3,-1.1 0.6,-1.6 0.2,-0.4 0.4,-0.7 0.7,-1 0.3,-0.3 0.7,-0.6 1.1,-0.8 0.2,-0.1 0.4,-0.2 0.7,-0.3 0.6,-0.3 1.2,-0.5 1.7,-0.9 0.3,-0.2 0.6,-0.5 0.9,-0.8 0.2,-0.1 0.4,-0.3 0.4,-0.6 z m -8.5,-73.7 c 0.2,-0.2 0,-0.6 -0.2,-0.9 -0.2,-0.4 -0.4,-0.7 -0.7,-0.8 -0.3,-0.1 -0.7,-0.1 -1,-0.1 -0.3,0 -0.6,0.1 -0.7,0.3 -0.1,0.2 -0.1,0.4 0,0.6 0.1,0.2 0.2,0.3 0.3,0.4 0.2,0.1 0.3,0.1 0.5,0.2 0.3,0.1 0.6,0.1 0.8,0.2 0.2,0.1 0.3,0.2 0.5,0.2 0.1,0 0.4,0 0.5,-0.1 z m -67.9,3.9 c 0,-0.1 0,-0.3 -0.2,-0.4 -0.2,-0.2 -0.7,0 -1,0.2 -1,0.5 -1.6,1 -2.2,1.7 -0.8,0.8 -1.5,1.9 -2.1,2.9 -0.9,1.4 -1.6,2.9 -2.2,4.4 -0.3,0.8 -0.7,1.6 -1,2.2 -0.2,0.3 -0.4,0.7 -0.5,1.1 -0.1,0.2 -0.1,0.5 0,0.6 0.1,0.2 0.3,0.1 0.5,0 0.4,-0.3 0.7,-0.8 1,-1.3 0.4,-0.7 0.9,-1.3 1.3,-2 0.4,-0.6 0.7,-1.1 1.1,-1.6 0.5,-0.8 1,-1.6 1.6,-2.4 0.6,-0.9 1.4,-1.8 2,-2.7 0.5,-0.7 0.9,-1.3 1.5,-2 0,-0.2 0.2,-0.5 0.2,-0.7 z m -19.7,0.3 c 0.1,-0.3 0.1,-0.6 0,-0.9 -0.2,-0.7 -0.5,-1.3 -0.9,-1.9 -0.4,-0.5 -0.8,-1 -1.2,-1.4 -0.5,-0.5 -0.9,-0.9 -1.7,-1.5 -0.6,-0.4 -1.4,-1 -1.5,-0.7 -0.1,0.1 0,0.3 0,0.5 0,0.3 0.1,0.6 0.2,0.8 0.1,0.4 0.2,0.8 0.4,1.2 0.2,0.4 0.4,0.7 0.7,1 0.3,0.3 0.5,0.6 0.8,0.9 0.1,0.1 0.2,0.2 0.3,0.3 0.2,0.2 0.4,0.5 0.6,0.8 0.3,0.4 0.5,0.8 1,1.1 0.3,0.2 0.7,0.3 1,0.1 0.1,-0.1 0.2,-0.2 0.3,-0.3 z m 103.4,168.5 c 0.1,-0.2 0.1,-0.5 0,-0.7 -0.1,-0.2 -0.4,-0.3 -0.7,-0.3 -0.3,0 -0.6,0.1 -0.9,0.2 -0.3,0.1 -0.5,0.3 -0.6,0.5 -0.3,0.4 -0.3,0.9 -0.1,1.4 0.1,0.2 0.2,0.4 0.4,0.5 0.2,0.1 0.5,0 0.7,-0.2 0.2,-0.2 0.4,-0.4 0.5,-0.6 0.1,-0.1 0.1,-0.1 0.2,-0.2 0.2,-0.2 0.4,-0.4 0.5,-0.6 z m -17.5,-53.9 c 0,-0.3 -0.1,-0.7 -0.3,-0.8 -0.2,-0.2 -0.7,0 -1,0.2 -0.9,0.5 -1.3,1.1 -1.7,1.9 -0.4,0.8 -0.8,1.7 -1,2.6 -0.3,1.2 -0.3,2.5 -0.2,3.7 0.1,0.9 0.2,1.8 0.3,2.7 0.1,0.5 0.2,1 0.4,1.5 0.2,0.4 0.3,0.7 0.7,1 0.2,0.2 0.4,0.3 0.6,0.2 0.1,0 0.2,-0.1 0.3,-0.3 0.1,-0.2 0.1,-0.4 0,-0.6 0,-0.4 0,-0.8 0,-1.2 0,-1.1 -0.1,-2.3 -0.1,-3.4 0,-0.9 0,-1.8 0.2,-2.6 0.2,-0.7 0.5,-1.4 0.8,-2.1 0.3,-0.5 0.5,-1 0.8,-1.5 0.1,-0.5 0.2,-0.8 0.2,-1.3 z"
   id="path297"
   style="fill:#ffffff" />
			<path
   d="m 443.8,877 c 61.5,-10.7 123.1,-21.4 184.6,-32 61.5,10.7 123.1,21.4 184.6,32 -0.2,9.8 -0.3,19.6 -0.4,29.4 -14.4,-5.3 -28.8,-10.5 -43.4,-15.2 -22.1,-7.1 -44.6,-12.9 -67.4,-17.3 -24.2,-4.7 -48.8,-7.7 -73.4,-7.6 -24.9,0.2 -49.7,3.6 -74.2,8.1 -19.9,3.6 -39.8,8 -59,14.1 -17.2,5.4 -34,12.3 -50.8,19.2 v 0 C 444.1,897.4 444,887.2 443.8,877 Z"
   id="path299"
   style="fill:#ffffff" />
			<path
   d="m 629.2,833.2 c -61.9,11.3 -123.7,22.5 -185.6,33.8 -0.1,-3.6 -0.1,-7.3 -0.2,-10.9 61.9,-11.4 123.8,-22.8 185.8,-34.2 61.4,11.3 122.8,22.6 184.2,33.9 -0.1,3.7 -0.1,7.3 -0.2,10.9 -61.4,-11.1 -122.7,-22.3 -184,-33.5 z"
   id="path301"
   style="fill:#ffffff" />
		</g>
	</g>
</g>

</svg>
