<svg xmlns="http://www.w3.org/2000/svg" width="14.996" height="15" viewBox="0 0 14.996 15">
  <path id="path24" d="M-19.5,27.352a7.882,7.882,0,0,1-1.436-.222,7.49,7.49,0,0,1-4.817-3.806,7.6,7.6,0,0,1-.812-2.709,10.116,10.116,0,0,1,0-1.513,7.4,7.4,0,0,1,.8-2.679,7.519,7.519,0,0,1,3.35-3.295A7.579,7.579,0,0,1-18,12.434a7.492,7.492,0,0,1,3.791,1.726,9.83,9.83,0,0,1,.857.867,7.449,7.449,0,0,1,1.755,5.01,7.184,7.184,0,0,1-.25,1.763,7.486,7.486,0,0,1-1.944,3.363,7.5,7.5,0,0,1-4.552,2.162c-.207.022-.97.041-1.153.028Zm1.142-.77a6.77,6.77,0,0,0,2.709-.909,6.716,6.716,0,0,0,2.152-2.032c.1-.147.135-.211.121-.219s-.259-.108-.552-.227l-1.142-.463Q-19.078,21.106-19.1,21.1c-.013,0-2.3.933-4.94,2.019l-.76.312c-.021.008.029.094.2.336a6.774,6.774,0,0,0,4.133,2.707,8.535,8.535,0,0,0,.865.125,10.393,10.393,0,0,0,1.25-.022Zm-5.38-4.526,2.123-1.658,1.15-.9.324-.254.419-3.025c.231-1.664.422-3.048.426-3.077l.006-.052-.194.011a6.818,6.818,0,0,0-3.729,1.387,6.757,6.757,0,0,0-2.174,7.854,5.74,5.74,0,0,0,.342.726c.006,0,.594-.456,1.307-1.013Zm10.695.811a6.827,6.827,0,0,0,.67-2.281,9.344,9.344,0,0,0,0-1.457,6.786,6.786,0,0,0-1.067-2.977,6.924,6.924,0,0,0-1.985-1.979A6.849,6.849,0,0,0-18.7,13.1l-.187-.011.006.037c0,.02.2,1.405.431,3.078s.43,3.045.436,3.05l.675.526c.985.767,1.927,1.5,3.119,2.435.586.459,1.072.832,1.081.83a1,1,0,0,0,.1-.18Z" transform="translate(26.59 -12.356)" fill="#fff"/>
</svg>
