<svg xmlns="http://www.w3.org/2000/svg" width="54.984" height="55" viewBox="0 0 54.984 55">
  <path id="mercedes" d="M-.578,67.342a28.9,28.9,0,0,1-5.264-.815A27.464,27.464,0,0,1-23.507,52.573a27.882,27.882,0,0,1-2.979-9.935,37.093,37.093,0,0,1,0-5.547,27.114,27.114,0,0,1,2.919-9.821A27.508,27.508,0,0,1,4.909,12.64a27.472,27.472,0,0,1,13.9,6.327,36.043,36.043,0,0,1,3.142,3.179,27.313,27.313,0,0,1,6.434,18.369,26.343,26.343,0,0,1-.917,6.464,27.447,27.447,0,0,1-7.127,12.33A27.5,27.5,0,0,1,3.65,67.238c-.76.081-3.556.149-4.228.1ZM3.61,64.52a24.825,24.825,0,0,0,9.935-3.333,24.624,24.624,0,0,0,7.891-7.45c.366-.539.5-.773.445-.8s-.951-.4-2.025-.832l-4.189-1.7Q.954,44.44.865,44.433c-.048,0-8.422,3.423-18.114,7.4l-2.786,1.143c-.078.031.108.343.737,1.233A24.839,24.839,0,0,0-4.145,64.14a31.3,31.3,0,0,0,3.17.46,38.1,38.1,0,0,0,4.585-.08Zm-19.727-16.6,7.783-6.08,4.217-3.3,1.189-.93,1.538-11.09C-.545,20.429.158,15.352.17,15.247l.023-.192-.711.039a25,25,0,0,0-13.674,5.084,24.775,24.775,0,0,0-7.97,28.8,21.045,21.045,0,0,0,1.254,2.661c.021,0,2.177-1.672,4.792-3.715ZM23.1,50.9a25.033,25.033,0,0,0,2.458-8.362,34.263,34.263,0,0,0,0-5.344,24.882,24.882,0,0,0-3.913-10.914,25.386,25.386,0,0,0-7.277-7.257A25.112,25.112,0,0,0,2.329,15.094l-.687-.039.023.135c.013.074.723,5.152,1.579,11.284s1.575,11.165,1.6,11.185,1.137.888,2.476,1.93c3.613,2.811,7.064,5.506,11.435,8.927,2.148,1.681,3.931,3.051,3.962,3.043a3.65,3.65,0,0,0,.383-.66Z" transform="translate(26.59 -12.356)" fill="#fff"/>
</svg>
