<svg xmlns="http://www.w3.org/2000/svg" width="100" height="38.976" viewBox="0 0 100 38.976">
  <path id="redbull" d="M196.262,128.669a23.821,23.821,0,0,0-5.119.481,19.976,19.976,0,0,0-11.219,7.354c-.443.616-.467.625-1.7.625a3.5,3.5,0,0,0-2.471.73A18.093,18.093,0,0,1,173,139.121a7.746,7.746,0,0,0-3.5,1.881c-.711.66-.928.764-1.587.764a5.178,5.178,0,0,0-3.468,1.5,5.409,5.409,0,0,1-3.325,1.479,8.13,8.13,0,0,0-4.09,1.735c-1.952,1.418-3.442,2.115-4.524,2.115a2.442,2.442,0,0,1-2.579-1.785c-.333-1.237-.033-1.781,2.1-3.817,1.9-1.811,1.931-1.852,1.931-2.63,0-1.361-.64-1.9-2.788-2.353a7.691,7.691,0,0,1-2.059-.776c-.933-.581-1.1-.5-1.1.529a2.9,2.9,0,0,0,2.748,2.607c.854,0,1.45.241,1.45.587a8.845,8.845,0,0,1-1.55,1.647c-1.742,1.6-2.125,2.234-2.125,3.53,0,2.694,2.322,4.331,5.251,3.7,1.135-.243,1.218-.159,1.222,1.246a5.885,5.885,0,0,0,.352,1.888,5.438,5.438,0,0,1,.35,1.148c0,.453-1.556,1.3-2.384,1.3-.874,0-1.2.272-1.491,1.239a2.767,2.767,0,0,1-.888,1.261c-.373.309-1.027.9-1.451,1.306a2.942,2.942,0,0,1-1.05.744c-.3,0-.785.977-.785,1.566,0,.415.507.584,1.5.5.583-.048.77-.176,1.3-.889.612-.831.618-.834,1.577-.8a3.449,3.449,0,0,0,2.74-1.126c.693-.609.83-.627,3.561-.46a3.017,3.017,0,0,0,2.353-.633,3.9,3.9,0,0,0,1.808-1.718,2.8,2.8,0,0,0,.491-1.281c-.145-.377-.3-.271-1.169.8-1.132,1.392-1.662,1.605-4.407,1.77-2.527.151-3.113.325-4.392,1.3a6.44,6.44,0,0,1-.9.62c-.233,0-.038-.643.35-1.151.695-.911,2.053-1.471,4.021-1.657a21.041,21.041,0,0,0,2.425-.351,4.249,4.249,0,0,0,3.168-3.27c.291-2.116.463-2.671.825-2.671.33,0,.343.077.228,1.389-.153,1.758-.039,2.207.656,2.566.488.252.739.261,2.112.074a15.629,15.629,0,0,1,3.1-.091c2.04.161,2.318.068,2.246-.757-.077-.9.441-1,.724-.139a4.877,4.877,0,0,0,1.96,2.041c1.083.558,2,1.833,1.824,2.535-.2.793-2.113,1.556-2.877,1.146a3.983,3.983,0,0,1-.918-1.022c-.756-1.126-.969-1.266-1.927-1.266-1.532,0-1.664.217-.9,1.48.4.666.567.795,1.016.795s.64.146,1.094.791c.859,1.218,1.171,1.292,2.977.708a19.542,19.542,0,0,0,2.046-.764,5.7,5.7,0,0,1,1.475-.4,1.807,1.807,0,0,0,1.1-.406c.239-.427.394-.339,1.138.645a19.888,19.888,0,0,0,32.212-.917c.035-.047.14.051.234.219a.792.792,0,0,0,.694.3,2.01,2.01,0,0,1,1.007.357,19.2,19.2,0,0,0,4.324,1.393,1.62,1.62,0,0,0,1.3-1.222c.143-.532.278-.679.7-.763.545-.109,1.518-1.366,1.313-1.7a3.77,3.77,0,0,0-2.365.05,7.171,7.171,0,0,0-.58.919c-.44.8-.86.932-1.943.613-.832-.245-1.5-.8-1.5-1.26a4.53,4.53,0,0,1,1.81-1.992,3.535,3.535,0,0,0,1.827-1.618c.415-.881.839-.862.784.036l-.041.68,2.229-.13c1.226-.072,2.9-.119,3.717-.107,1.723.027,2.566-.289,2.954-1.107.2-.42.2-.718.028-1.7-.262-1.466-.262-1.449.071-1.519s.577.525.913,2.332a5.777,5.777,0,0,0,2.055,3.738c.6.4.911.467,2.625.551,2.23.108,3.109.434,4.3,1.591,1.037,1.007.7,1.147-.61.251a4.849,4.849,0,0,0-3.831-.9,4.517,4.517,0,0,1-4.685-2.415l-.526-.889.1.941a3.19,3.19,0,0,0,1.7,2.776,3.239,3.239,0,0,0,2.433.539,6.039,6.039,0,0,1,4.078,1.151c1.008.769,1.243.832,2.162.587l.8-.214.549.646a2.234,2.234,0,0,0,2.166.929c.641-.12.637-.109.387-1.01a1.391,1.391,0,0,0-.656-.9,10.517,10.517,0,0,1-1.627-1.444c-.885-.919-1.184-1.362-1.282-1.9-.209-1.149-.485-1.429-1.5-1.527a2.071,2.071,0,0,1-1.267-.453c-.366-.366-.366-.368-.04-1.677a3.762,3.762,0,0,0,.114-2.226,1.841,1.841,0,0,1-.055-1.073,1.768,1.768,0,0,1,1.01-.006c2.43.428,4.51-.891,4.749-3.011.131-1.161-.56-2.476-2.165-4.126-1.365-1.4-1.559-1.914-.728-1.916a2.967,2.967,0,0,0,3.026-2.311,3.466,3.466,0,0,0,0-1.168c-.115-.363-.117-.363-.586-.023a4.247,4.247,0,0,1-1.308.524c-1.919.42-3.45,1.52-3.45,2.479,0,.758.239,1.126,1.745,2.688,2.041,2.118,2.471,2.968,2.033,4.017a2.075,2.075,0,0,1-2.232,1.321c-1.254,0-1.734-.191-3.842-1.532a13.96,13.96,0,0,0-5.077-2.352,7.946,7.946,0,0,1-3.017-1.3,8.019,8.019,0,0,0-2.637-1.209,4.582,4.582,0,0,1-1.919-.86,8.2,8.2,0,0,0-3.487-1.644,4.2,4.2,0,0,1-2.3-1.218c-1.47-1.343-2.989-1.751-4.07-1.092l-.563.343-.77-1A24.646,24.646,0,0,0,206.822,132a20.958,20.958,0,0,0-8.406-3.194A16.209,16.209,0,0,0,196.262,128.669Zm-.423.721a19.2,19.2,0,0,1,12.851,5.081,16.989,16.989,0,0,1,2.857,3.391c0,.161-.158.286-3.675,2.893a31.786,31.786,0,0,0-3.339,2.881c-1.589,1.664-2.061,2.677-3.126,6.706-1.139,4.311-1.924,5.916-3.468,7.1-.636.486-.729.621-.488.714a2.021,2.021,0,0,0,.971-.088c.524-.157.847-.444,1.454-1.293.892-1.247,1.467-1.816,1.651-1.633.07.07-.02.378-.2.684s-.529.941-.776,1.41a4.935,4.935,0,0,1-1.026,1.313c-.692.552-.724.723-.134.723a3.916,3.916,0,0,0,2.41-1.212,3.334,3.334,0,0,1,.985-.713,2.425,2.425,0,0,1,.816.461,1.584,1.584,0,0,0,1.549.35,4.575,4.575,0,0,1,2.461.424c1.42.5,1.543.518,1.939.258.447-.293.471-.355.495-1.319.012-.481.087-.613.351-.613.539,0,.522-.385-.057-1.287a4.69,4.69,0,0,1-.541-1,5.482,5.482,0,0,0-.788-1.121c-.688-.839-1.007-1.575-.681-1.575a3.849,3.849,0,0,1,.762.52,3.537,3.537,0,0,0,2.71.88h1.106l-.444-1.094c-.513-1.263-.741-3.471-.4-3.882.431-.519.673-.105.8,1.356.151,1.808.558,2.689,1.576,3.406s1.008,1.028-.01,2.545a3.441,3.441,0,0,0-.808,1.882c-.012.879-.229,1.02-.476.31-.321-.922-.223-1.389.538-2.558.593-.911.684-1.15.481-1.278-.536-.339-.81-.133-1.528,1.15a4.126,4.126,0,0,0-.734,2.09c0,.678-.134.954-1.049,2.169a18.995,18.995,0,0,1-25.582,4.307,27.648,27.648,0,0,1-5.116-4.932c-.452-.672-.478-.791-.281-1.267s.157-.645-.549-2.039c-.756-1.493-1.23-1.946-1.721-1.642-.175.108-.059.454.5,1.485.826,1.532.888,2.075.331,2.9-.5.736-.936.922-.763.325.375-1.295.343-1.464-.6-3.208-1.029-1.908-1.02-1.974.311-2.351.858-.243,1.166-.637,1.455-1.859.355-1.506.48-1.733.8-1.468.362.3.2,1.818-.289,2.786a4.562,4.562,0,0,0-.347.792c0,.125.877.041,2.7-.256a5.526,5.526,0,0,1,1.279-.126,1.816,1.816,0,0,1-.288.744,3.411,3.411,0,0,0-.361.859,2.309,2.309,0,0,1-.6.766c-.785.76-.92,1.24-.349,1.24.508,0,.508.006.084.734a1.3,1.3,0,0,0,.24,1.813c.331.217.51.218,1.334,0,.523-.137,1.173-.333,1.444-.436a6.864,6.864,0,0,1,1.759-.188,2.494,2.494,0,0,0,2.014-.55l.748-.55.468.377a5.556,5.556,0,0,0,2.635,1.418c1.247.237,1.446.058.519-.468a3.658,3.658,0,0,1-1.975-2.255,6.119,6.119,0,0,0-.775-1.372.491.491,0,0,1-.2-.379c0-.494.973.213,1.567,1.14a4.212,4.212,0,0,0,2.375,2.037c.6.113,1.105-.064.646-.228a4.964,4.964,0,0,1-1.8-1.841,14.674,14.674,0,0,0-1.122-1.538c-.622-.708-1.534-3.565-1.839-5.763-.247-1.78-.738-2.759-2.445-4.881a36.816,36.816,0,0,0-6.808-6.094,17.717,17.717,0,0,1,2.911-3.323,19.266,19.266,0,0,1,8.026-4.18,18.3,18.3,0,0,1,4.663-.554Zm17.653,11.356c.116.005.209.089.329.232.182.219.025.455-.959,1.444a11.2,11.2,0,0,0-1.425,1.663c-.32.619-.415.607-.415-.051a3.96,3.96,0,0,1,1.469-2.582C213.041,140.945,213.3,140.737,213.493,140.746Zm-34.073,1.2c.668,0,1.308,1.682,1.064,2.8-.158.719-.372.665-.5-.128a5.531,5.531,0,0,0-.46-1.35C179.109,142.448,179.069,141.941,179.42,141.941Zm7.769,6.685a.339.339,0,0,1,.089,0,5.188,5.188,0,0,1,1.8,2.6,1.29,1.29,0,0,1-.143.914c-.291.39-.489.22-.489-.419,0-.55-.767-1.559-1.185-1.559a1.365,1.365,0,0,0-.685.38l-.4.381v-.376a3.846,3.846,0,0,1,.389-1.175C186.807,148.866,186.986,148.648,187.189,148.626Zm18.606.491c.231,0,1.027,1.354,1.027,1.747,0,.412-.487.481-.637.091a.456.456,0,0,0-.4-.263,3.384,3.384,0,0,0-1.851,1.75c-.23,1.049-.76.692-.548-.368A10.064,10.064,0,0,1,205.8,149.117Zm-19,6.3c.327,0,.425.093.425.4a1,1,0,0,1-.21.613c-.244.244-1.125.282-1.265.055C185.574,156.21,186.352,155.417,186.8,155.417Zm18.867.35a.726.726,0,0,1,.778.821c-.131.68-1.194.331-1.194-.392C205.247,155.861,205.338,155.767,205.663,155.767Zm-32.011.918a5.656,5.656,0,0,0-.588.059c-.816.108-.882.148-.659.4a5.167,5.167,0,0,1,.536.852.857.857,0,0,0,1.414.33c.295-.215.3-.3.093-.831C174.193,156.853,174.1,156.677,173.652,156.685Zm44.907.289-.911.053c-.831.048-.926.1-1.08.563-.138.417-.111.552.151.744.457.334,1.26.294,1.448-.073a4.395,4.395,0,0,0,.274-.8Zm-69.613.454c-.146-.006-.345.1-.732.359-.669.443-.9.9-.6,1.2s1.02-.006,1.406-.58c.347-.517.369-.636.158-.848A.351.351,0,0,0,148.946,157.428Zm93.4.043a.484.484,0,0,0-.192.06c-.434.232-.416.322.213,1.085.588.714.869.8,1.287.377.4-.4.354-.512-.45-1.1C242.773,157.576,242.539,157.454,242.341,157.471ZM146.582,159.3c-.284-.016-.538.323-.671.956-.078.373-.195.848-.259,1.055-.087.281-.034.4.205.463.681.18.847.035,1.1-.96.208-.819.211-1.04.022-1.267A.585.585,0,0,0,146.582,159.3Zm98.016.146c-.528,0-.629.476-.338,1.593.257.986.3,1.042.712.94.625-.154.762-.344.543-.753a2.171,2.171,0,0,1-.191-.859C245.324,159.794,245.047,159.442,244.6,159.442Z" transform="translate(-145.613 -128.669)" fill="#fff"/>
</svg>
