<?xml version="1.0" encoding="UTF-8" standalone="no"?>
<svg
   xmlns:dc="http://purl.org/dc/elements/1.1/"
   xmlns:cc="http://creativecommons.org/ns#"
   xmlns:rdf="http://www.w3.org/1999/02/22-rdf-syntax-ns#"
   xmlns:svg="http://www.w3.org/2000/svg"
   xmlns="http://www.w3.org/2000/svg"
   xmlns:sodipodi="http://sodipodi.sourceforge.net/DTD/sodipodi-0.dtd"
   xmlns:inkscape="http://www.inkscape.org/namespaces/inkscape"
   width="59.992287pt"
   height="75pt"
   viewBox="0 0 59.992289 75"
   version="1.1"
   id="svg68"
   sodipodi:docname="renault_white.svg"
   inkscape:version="1.0.1 (3bc2e813f5, 2020-09-07)">
  <metadata
     id="metadata72">
    <rdf:RDF>
      <cc:Work
         rdf:about="">
        <dc:format>image/svg+xml</dc:format>
        <dc:type
           rdf:resource="http://purl.org/dc/dcmitype/StillImage" />
        <dc:title></dc:title>
      </cc:Work>
    </rdf:RDF>
  </metadata>
  <sodipodi:namedview
     pagecolor="#ffffff"
     bordercolor="#666666"
     borderopacity="1"
     objecttolerance="10"
     gridtolerance="10"
     guidetolerance="10"
     inkscape:pageopacity="0"
     inkscape:pageshadow="2"
     inkscape:window-width="1920"
     inkscape:window-height="1017"
     id="namedview70"
     showgrid="false"
     fit-margin-top="0"
     fit-margin-left="0"
     fit-margin-right="0"
     fit-margin-bottom="0"
     inkscape:zoom="4.5887011"
     inkscape:cx="35.027439"
     inkscape:cy="54.729591"
     inkscape:window-x="-8"
     inkscape:window-y="-8"
     inkscape:window-maximized="1"
     inkscape:current-layer="surface1" />
  <defs
     id="defs5">
    <clipPath
       id="clip1">
      <path
         d="m 574,28 h 43.16016 V 62 H 574 Z m 0,0"
         id="path2" />
    </clipPath>
  </defs>
  <g
     id="surface1"
     transform="translate(0,-2.886719)">
    <path
       style="fill:#ffffff;fill-opacity:1;fill-rule:nonzero;stroke:none;stroke-width:0.580885"
       d="m 40.23765,42.582058 c -3.986779,8.570327 -14.762654,28.461109 -16.997701,32.266361 -0.145221,0.240523 -0.260945,0.431126 -0.349439,0.571809 -0.331286,0.508275 -0.61946,0.800987 -0.859983,0.789641 0,0 3.982241,-7.292833 7.095423,-15.100747 -3.498926,-6.451004 -6.509999,-12.420961 -9.400811,-18.563369 -0.51962,-1.093698 -0.76695,-1.636009 -0.762412,-2.173782 0,-0.0023 0,-0.0023 0,-0.0023 v -0.0023 c 0,-0.533234 0.258676,-1.073276 0.769219,-2.171512 4.18419,-8.999184 14.426831,-28.2977356 17.394791,-32.8926287 0.344901,-0.5355036 0.530966,-0.7351829 0.778296,-0.7351829 h 0.02269 c 0,0 -4.136539,7.7421116 -7.088616,15.1007476 3.501195,6.451004 6.523614,12.434576 9.414426,18.576984 0.512813,1.091428 0.762412,1.615587 0.762412,2.148821 0,0.535503 -0.267752,1.084622 -0.778296,2.187396 M 59.46586,38.368371 C 58.3767,36.09475 54.98669,29.423646 52.114031,24.213831 48.177172,17.075295 41.143014,5.321445 40.346566,4.2504378 39.556925,3.1907758 39.114454,3.1431252 38.383809,3.0682456 L 38.277162,3.0569004 C 37.212962,2.9389081 32.706564,2.886719 29.997278,2.886719 c -2.323541,0 -7.256527,0.058996 -8.406952,0.1747193 C 20.510242,3.1680853 20.215261,3.4993711 19.59807,4.3048958 18.749434,5.4122083 11.601822,17.501883 7.8782564,24.213831 5.1848547,29.069669 0.9189785,37.463007 0.52415833,38.368371 0.16564292,39.182972 0,39.822853 0,40.385586 c 0,0.599037 0.16564292,1.238919 0.52415833,2.017215 0.89401847,1.940065 3.58968917,7.308716 7.35409807,14.152271 3.9255136,7.140804 11.0163986,18.940036 11.7674656,19.965662 0.794178,1.084621 1.313798,1.130003 2.033098,1.195806 1.08916,0.09757 5.797507,0.170182 8.318458,0.170182 2.718362,0 7.637734,-0.108916 8.316189,-0.170182 0.671649,-0.06126 1.252534,-0.113454 2.033099,-1.195806 0.714761,-0.98932 8.341149,-13.702993 11.767465,-19.965662 3.285632,-5.999456 6.932049,-13.210602 7.351829,-14.152271 0.462893,-1.032433 0.526427,-1.579282 0.526427,-2.017215 0,-0.344901 -0.06807,-1.0642 -0.526427,-2.017215"
       id="path33" />
  </g>
</svg>
